<svg id="eMnGObgrzuD1" xmlns="http://www.w3.org/2000/svg" xmlns:xlink="http://www.w3.org/1999/xlink" viewBox="0 0 116 58" shape-rendering="geometricPrecision" text-rendering="geometricPrecision">
  <defs>
    <rect id="eMnGObgrzuD2" width="116" height="58" rx="0" ry="0" />
  </defs>
  <g id="eMnGObgrzuD3">
    <g id="eMnGObgrzuD4">
      <g id="eMnGObgrzuD5">
        <g id="eMnGObgrzuD6" clip-path="url(#eMnGObgrzuD10)">
          <path id="eMnGObgrzuD7" d="M51.720000,56.410000C51.720000,56.590000,51.570000,56.740000,51.400000,56.740000" fill="rgb(255,255,255)" stroke="none" stroke-width="1" />
          <path id="eMnGObgrzuD8" d="M51.390000,56.730000L15.970000,56.730000C15.790000,56.730000,15.640000,56.580000,15.640000,56.400000" fill="rgb(255,255,255)" stroke="none" stroke-width="1" />
          <line id="eMnGObgrzuD9" x1="114.810000" y1="26.280000" x2="114.810000" y2="28.360000" fill="rgb(37,43,59)" stroke="none" stroke-width="1" />
          <clipPath id="eMnGObgrzuD10">
            <use id="eMnGObgrzuD11" display="none" width="116" height="58" xlink:href="#eMnGObgrzuD2" fill="rgb(0,0,0)" stroke="none" stroke-width="1" />
          </clipPath>
        </g>
      </g>
      <path id="eMnGObgrzuD12" d="M35.510000,7.200000C35.510000,8.740000,34.640000,9.980000,33.560000,9.980000C32.480000,9.980000,31.610000,8.740000,31.610000,7.200000C31.610000,5.660000,33.560000,0.480000,33.560000,0.480000C33.560000,0.480000,35.510000,5.670000,35.510000,7.200000" transform="matrix(1 0 0 1 0.09499755859375 -20.60847898092651)" fill="rgb(37,43,59)" stroke="none" stroke-width="1" />
      <path id="eMnGObgrzuD13" d="M45.130000,52.670000L21.810000,52.670000C21.640000,52.670000,21.510000,52.530000,21.510000,52.360000C21.510000,51.560000,22.160000,50.910000,22.960000,50.910000L44,50.910000C44.800000,50.910000,45.450000,51.560000,45.450000,52.360000C45.440000,52.540000,45.300000,52.670000,45.130000,52.670000" transform="matrix(1 0 0 1 0.55000000000000 7.09000000000000)" fill="rgb(37,43,59)" stroke="none" stroke-width="1" />
      <path id="eMnGObgrzuD14" d="M15.440000,55.590000C15.440000,54.740000,16.130000,54.050000,16.980000,54.050000L49.970000,54.050000C50.820000,54.050000,51.510000,54.740000,51.510000,55.590000" transform="matrix(1 0 0 1 0.55000000000000 7.09000000000000)" fill="rgb(37,43,59)" stroke="none" stroke-width="1" />
      <path id="eMnGObgrzuD15" d="M54.290000,12.460000C51.730000,10.890000,48.440000,13.080000,45.930000,12.990000C42.630000,12.880000,36.790000,11.060000,33.670000,11.060000C33.640000,11.060000,33.560000,11.060000,33.560000,11.060000C33.560000,11.060000,33.490000,11.060000,33.450000,11.060000C30.330000,11.060000,24.490000,12.890000,21.190000,12.990000C18.680000,13.070000,15.390000,10.890000,12.830000,12.460000C10.970000,13.830000,11.660000,17.750000,8.170000,16.580000C9.100000,17.950000,11.430000,17.560000,12.360000,16.580000C13.060000,15.400000,12.370000,13.250000,14.350000,13.180000C17.060000,13.090000,18.490000,15.280000,20.680000,15.160000C25.040000,14.910000,41.940000,14.910000,46.420000,15.160000C48.610000,15.280000,50.040000,13.090000,52.750000,13.180000C54.740000,13.240000,54.040000,15.400000,54.740000,16.580000C55.670000,17.560000,58,17.950000,58.930000,16.580000C55.460000,17.750000,56.160000,13.830000,54.290000,12.460000" opacity="0" fill="rgb(37,43,59)" stroke="none" stroke-width="1" />
      <path id="eMnGObgrzuD16" d="M11.980000,26.030000L17.280000,15.070000C18.050000,15.470000,17.780000,16.160000,17.400000,16.950000L13.130000,26.030000L11.980000,26.030000Z" opacity="0" fill="rgb(37,43,59)" stroke="none" stroke-width="1" />
      <rect id="eMnGObgrzuD17" width="21.700000" height="11.590000" rx="0" ry="0" transform="matrix(0 0 0 0 15.82000017166138 32.56500053405762)" fill="none" stroke="rgb(37,43,59)" stroke-width="0.700000" stroke-miterlimit="10" />
      <rect id="eMnGObgrzuD18" width="17.850000" height="8.530000" rx="0" ry="0" transform="matrix(0 0 0 0 15.65500028610230 32.56499862670898)" fill="rgb(37,43,59)" stroke="none" stroke-width="1" />
      <path id="eMnGObgrzuD19" d="M27.980000,43.850000L3.910000,43.850000L5.580000,40.800000C5.760000,40.480000,6.080000,40.280000,6.440000,40.280000L25.460000,40.280000C25.820000,40.280000,26.140000,40.480000,26.320000,40.800000L27.980000,43.850000Z" transform="matrix(0 0 0 0 15.81999993324280 42.06499862670898)" fill="none" stroke="rgb(37,43,59)" stroke-width="0.500000" stroke-miterlimit="10" />
      <path id="eMnGObgrzuD20" d="M26.490000,43.110000L5.490000,43.110000L6.590000,41.140000C6.740000,40.950000,7.390000,41,7.700000,41L24.290000,41C24.600000,41,25.210000,41,25.370000,41.190000L26.490000,43.110000Z" transform="matrix(0 0 0 0 15.81999977111817 42.05202865600586)" fill="rgb(37,43,59)" stroke="none" stroke-width="1" />
      <path id="eMnGObgrzuD21" d="M59.690000,38.720000L40.880000,38.720000C39.910000,38.720000,39.120000,37.930000,39.120000,36.960000L39.120000,22.380000L47.680000,22.380000L49.400000,23.720000L59.680000,23.720000L59.680000,38.720000Z" transform="matrix(0 0 0 0 49.40500068664551 30.55000019073486)" fill="none" stroke="rgb(37,43,59)" stroke-width="0.750000" stroke-miterlimit="10" />
      <rect id="eMnGObgrzuD22" width="18.520000" height="12.780000" rx="0" ry="0" transform="matrix(0 0 0 0 53.34000205993652 32.31999969482422)" fill="none" stroke="rgb(37,43,59)" stroke-width="0.750000" stroke-miterlimit="10" />
      <g id="eMnGObgrzuD23">
        <path id="eMnGObgrzuD24" d="M61.460000,27.880000L52.900000,27.880000C52.780000,27.880000,52.670000,27.780000,52.670000,27.650000C52.670000,27.530000,52.770000,27.420000,52.900000,27.420000L61.460000,27.420000C61.580000,27.420000,61.690000,27.520000,61.690000,27.650000C61.680000,27.780000,61.580000,27.880000,61.460000,27.880000Z" transform="matrix(0 0 0 0 53.17999839782715 27.64999961853027)" fill="none" stroke="rgb(37,43,59)" stroke-width="0.250000" stroke-miterlimit="10" />
        <path id="eMnGObgrzuD25" d="M61.460000,28.990000L52.900000,28.990000C52.780000,28.990000,52.670000,28.890000,52.670000,28.760000C52.670000,28.640000,52.770000,28.530000,52.900000,28.530000L61.460000,28.530000C61.580000,28.530000,61.690000,28.630000,61.690000,28.760000C61.680000,28.890000,61.580000,28.990000,61.460000,28.990000Z" transform="matrix(0 0 0 0 53.17999839782715 28.76000022888184)" fill="none" stroke="rgb(37,43,59)" stroke-width="0.250000" stroke-miterlimit="10" />
        <rect id="eMnGObgrzuD26" width="0.470000" height="0.470000" rx="0" ry="0" transform="matrix(0 0 0 0 45.22500228881836 27.19499874114990)" fill="none" stroke="rgb(37,43,59)" stroke-width="0.250000" stroke-miterlimit="10" />
        <rect id="eMnGObgrzuD27" width="0.470000" height="0.470000" rx="0" ry="0" transform="matrix(0 0 0 0 46.13500213623047 27.19499874114990)" fill="none" stroke="rgb(37,43,59)" stroke-width="0.250000" stroke-miterlimit="10" />
        <rect id="eMnGObgrzuD28" width="0.470000" height="0.470000" rx="0" ry="0" transform="matrix(0 0 0 0 47.03499984741211 27.19499874114990)" fill="none" stroke="rgb(37,43,59)" stroke-width="0.250000" stroke-miterlimit="10" />
      </g>
      <path id="eMnGObgrzuD29" d="M32.420000,50.150000L34.700000,50.150000C34.700000,50.130000,35.430000,46.670000,35.430000,46.670000L36.870000,34.830000L34.970000,21.800000L34.730000,17.910000C34.730000,17.040000,33.570000,15.770000,33.570000,15.770000C33.570000,15.770000,32.410000,17.040000,32.410000,17.910000L32.160000,21.950000L30.260000,34.830000L31.700000,46.670000C31.690000,46.670000,32.420000,50.120000,32.420000,50.150000" opacity="0" fill="rgb(37,43,59)" stroke="none" stroke-width="1" />
      <polygon id="eMnGObgrzuD30" points="65.390000,16.060000 67.580000,16.060000 67.580000,25.460000 70.760000,25.460000 70.760000,27.550000 65.390000,27.550000" transform="matrix(1 0 0 1 0 -27.81000000000000)" fill="rgb(37,43,59)" stroke="none" stroke-width="1" />
      <polygon id="eMnGObgrzuD31" points="73.240000,16.060000 79.510000,16.060000 79.510000,18.200000 75.410000,18.200000 75.410000,20.270000 79.510000,20.270000 79.510000,22.380000 75.410000,22.380000 75.410000,25.400000 79.510000,25.400000 79.510000,27.550000 73.240000,27.550000" transform="matrix(1 0 0 1 0 -27.81000000000000)" fill="rgb(37,43,59)" stroke="none" stroke-width="1" />
      <path id="eMnGObgrzuD32" d="M92.960000,17.930000L91.420000,19.450000C90.440000,18.420000,89.310000,17.900000,88.010000,17.900000C86.880000,17.900000,85.930000,18.280000,85.170000,19.020000C84.410000,19.760000,84.020000,20.680000,84.020000,21.750000C84.020000,22.860000,84.420000,23.800000,85.210000,24.570000C86,25.340000,86.980000,25.730000,88.140000,25.730000C88.890000,25.730000,89.530000,25.570000,90.050000,25.250000C90.570000,24.930000,90.990000,24.430000,91.310000,23.760000L87.980000,23.760000L87.980000,21.700000L93.760000,21.700000L93.780000,22.180000C93.780000,23.180000,93.520000,24.140000,93,25.040000C92.480000,25.940000,91.810000,26.630000,90.980000,27.100000C90.150000,27.570000,89.180000,27.810000,88.070000,27.810000C86.880000,27.810000,85.810000,27.550000,84.880000,27.030000C83.950000,26.510000,83.200000,25.770000,82.660000,24.820000C82.120000,23.870000,81.840000,22.830000,81.840000,21.720000C81.840000,20.200000,82.340000,18.880000,83.350000,17.750000C84.540000,16.410000,86.100000,15.740000,88.010000,15.740000C89.010000,15.740000,89.950000,15.930000,90.820000,16.300000C91.540000,16.630000,92.250000,17.170000,92.960000,17.930000" transform="matrix(1 0 0 1 0 -27.81000000000000)" fill="rgb(37,43,59)" stroke="none" stroke-width="1" />
      <path id="eMnGObgrzuD33" d="M100.090000,16.060000L102.310000,16.060000L106.730000,27.550000L104.450000,27.550000L103.550000,25.180000L98.860000,25.180000L97.920000,27.550000L95.650000,27.550000L100.090000,16.060000ZM101.210000,19.100000L99.670000,23.050000L102.750000,23.050000L101.210000,19.100000Z" transform="matrix(1 0 0 1 0 -27.81000000000000)" fill="rgb(37,43,59)" stroke="none" stroke-width="1" />
      <polyline id="eMnGObgrzuD34" points="114.600000,27.550000 109.220000,27.550000 109.220000,16.060000 111.410000,16.060000 111.410000,25.460000 114.600000,25.460000" transform="matrix(1 0 0 1 0 -27.81000000000000)" fill="rgb(37,43,59)" stroke="none" stroke-width="1" />
      <path id="eMnGObgrzuD35" d="M84.330000,34.970000C85.960000,34.970000,87.360000,35.560000,88.520000,36.740000C89.690000,37.920000,90.280000,39.350000,90.280000,41.050000C90.280000,42.730000,89.700000,44.150000,88.550000,45.310000C87.400000,46.470000,86,47.050000,84.350000,47.050000C82.630000,47.050000,81.190000,46.450000,80.050000,45.260000C78.910000,44.070000,78.340000,42.650000,78.340000,41.010000C78.340000,39.910000,78.610000,38.900000,79.140000,37.980000C79.670000,37.060000,80.400000,36.330000,81.330000,35.790000C82.260000,35.240000,83.260000,34.970000,84.330000,34.970000M84.310000,37.110000C83.250000,37.110000,82.350000,37.480000,81.630000,38.220000C80.910000,38.960000,80.540000,39.900000,80.540000,41.040000C80.540000,42.310000,81,43.320000,81.910000,44.050000C82.620000,44.630000,83.430000,44.920000,84.350000,44.920000C85.390000,44.920000,86.270000,44.540000,87,43.800000C87.730000,43.050000,88.100000,42.130000,88.100000,41.030000C88.100000,39.940000,87.730000,39.010000,87,38.250000C86.260000,37.490000,85.370000,37.110000,84.310000,37.110000" transform="matrix(1 0 0 1 1.38499999999999 23.02999999999983)" fill="rgb(37,43,59)" stroke="none" stroke-width="1" />
      <path id="eMnGObgrzuD36" d="M66.910000,35.260000L69.500000,35.260000C71.170000,35.260000,72.410000,35.470000,73.220000,35.880000C74.030000,36.290000,74.700000,36.970000,75.220000,37.900000C75.750000,38.830000,76.010000,39.920000,76.010000,41.170000C76.010000,42.060000,75.860000,42.870000,75.570000,43.610000C75.280000,44.350000,74.870000,44.970000,74.350000,45.460000C73.830000,45.950000,73.270000,46.290000,72.670000,46.480000C72.070000,46.670000,71.020000,46.760000,69.530000,46.760000L66.900000,46.760000L66.900000,35.260000ZM69.090000,37.370000L69.090000,44.620000L70.110000,44.620000C71.110000,44.620000,71.830000,44.510000,72.280000,44.280000C72.730000,44.050000,73.100000,43.660000,73.390000,43.120000C73.680000,42.580000,73.820000,41.910000,73.820000,41.120000C73.820000,39.900000,73.480000,38.950000,72.800000,38.280000C72.190000,37.680000,71.200000,37.370000,69.840000,37.370000L69.090000,37.370000Z" transform="matrix(1 0 0 1 1.38499999999999 23.02999999999983)" fill="rgb(37,43,59)" stroke="none" stroke-width="1" />
      <path id="eMnGObgrzuD37" d="M103.710000,37.280000L102.180000,38.740000C101.140000,37.640000,99.970000,37.090000,98.670000,37.090000C97.570000,37.090000,96.650000,37.470000,95.900000,38.220000C95.150000,38.970000,94.770000,39.900000,94.770000,41C94.770000,41.770000,94.940000,42.450000,95.270000,43.040000C95.600000,43.640000,96.070000,44.100000,96.680000,44.440000C97.290000,44.780000,97.970000,44.950000,98.710000,44.950000C99.350000,44.950000,99.930000,44.830000,100.450000,44.600000C100.980000,44.360000,101.550000,43.930000,102.180000,43.300000L103.660000,44.850000C102.810000,45.680000,102.010000,46.250000,101.250000,46.570000C100.490000,46.890000,99.630000,47.050000,98.660000,47.050000C96.870000,47.050000,95.410000,46.480000,94.270000,45.350000C93.130000,44.220000,92.560000,42.770000,92.560000,40.990000C92.560000,39.840000,92.820000,38.830000,93.340000,37.930000C93.860000,37.040000,94.600000,36.320000,95.570000,35.780000C96.540000,35.240000,97.580000,34.970000,98.690000,34.970000C99.640000,34.970000,100.550000,35.170000,101.430000,35.570000C102.310000,35.970000,103.070000,36.540000,103.710000,37.280000" transform="matrix(1 0 0 1 1.38499999999999 23.02999999999983)" fill="rgb(37,43,59)" stroke="none" stroke-width="1" />
      <path id="eMnGObgrzuD38" d="M112.450000,36.820000L110.830000,38.250000C110.260000,37.460000,109.680000,37.060000,109.090000,37.060000C108.800000,37.060000,108.570000,37.140000,108.380000,37.290000C108.200000,37.440000,108.110000,37.620000,108.110000,37.810000C108.110000,38,108.180000,38.190000,108.300000,38.360000C108.480000,38.590000,109.010000,39.080000,109.910000,39.840000C110.740000,40.540000,111.250000,40.980000,111.430000,41.160000C111.870000,41.610000,112.190000,42.040000,112.370000,42.440000C112.550000,42.850000,112.650000,43.300000,112.650000,43.780000C112.650000,44.720000,112.320000,45.500000,111.670000,46.120000C111.020000,46.730000,110.170000,47.040000,109.120000,47.040000C108.300000,47.040000,107.590000,46.840000,106.980000,46.440000C106.370000,46.040000,105.850000,45.410000,105.420000,44.550000L107.260000,43.440000C107.810000,44.460000,108.450000,44.960000,109.170000,44.960000C109.550000,44.960000,109.860000,44.850000,110.120000,44.630000C110.380000,44.410000,110.500000,44.160000,110.500000,43.870000C110.500000,43.610000,110.400000,43.350000,110.210000,43.090000C110.020000,42.830000,109.590000,42.430000,108.930000,41.900000C107.680000,40.880000,106.870000,40.090000,106.500000,39.540000C106.140000,38.980000,105.950000,38.430000,105.950000,37.880000C105.950000,37.080000,106.250000,36.400000,106.860000,35.830000C107.470000,35.260000,108.220000,34.970000,109.110000,34.970000C109.680000,34.970000,110.230000,35.100000,110.750000,35.370000C111.290000,35.630000,111.850000,36.120000,112.450000,36.820000" transform="matrix(1 0 0 1 1.38499999999999 23.02999999999983)" fill="rgb(37,43,59)" stroke="none" stroke-width="1" />
      <path id="eMnGObgrzuD39" d="M15.010000,49.440000C22.720000,49.440000,28.970000,47.330000,28.970000,44.730000L1.050000,44.730000C1.050000,47.340000,7.300000,49.440000,15.010000,49.440000" transform="matrix(1 0 0 1 0.19499999999999 18.09999999999994)" fill="rgb(37,43,59)" stroke="none" stroke-width="1" />
      <path id="eMnGObgrzuD40" d="M51.910000,44.530000C59.500000,44.530000,65.660000,42.460000,65.660000,39.900000L38.160000,39.900000C38.160000,42.460000,44.320000,44.530000,51.910000,44.530000" transform="matrix(1 0 0 1 0.19499999999999 18.09999999999993)" fill="rgb(37,43,59)" stroke="none" stroke-width="1" />
      <path id="eMnGObgrzuD41" d="M56.240000,22.820000L51.830000,13.880000C51.150000,14.220000,51.390000,14.810000,51.720000,15.500000L55.300000,22.820000L56.240000,22.820000Z" opacity="0" fill="rgb(37,43,59)" stroke="none" stroke-width="1" />
    </g>
  </g>
  <script>
    <![CDATA[!function(t,n){"object"==typeof exports&&"undefined"!=typeof module?module.exports=n():"function"==typeof define&&define.amd?define(n):(t="undefined"!=typeof globalThis?globalThis:t||self).__SVGATOR_PLAYER__=n()}(this,(function(){"use strict";function t(n){return(t="function"==typeof Symbol&&"symbol"==typeof Symbol.iterator?function(t){return typeof t}:function(t){return t&&"function"==typeof Symbol&&t.constructor===Symbol&&t!==Symbol.prototype?"symbol":typeof t})(n)}function n(t,n){if(!(t instanceof n))throw new TypeError("Cannot call a class as a function")}function r(t,n){for(var r=0;r<n.length;r++){var e=n[r];e.enumerable=e.enumerable||!1,e.configurable=!0,"value"in e&&(e.writable=!0),Object.defineProperty(t,e.key,e)}}function e(t,n,e){return n&&r(t.prototype,n),e&&r(t,e),t}function i(t){return(i=Object.setPrototypeOf?Object.getPrototypeOf:function(t){return t.__proto__||Object.getPrototypeOf(t)})(t)}function o(t,n){return(o=Object.setPrototypeOf||function(t,n){return t.__proto__=n,t})(t,n)}function u(t,n){return!n||"object"!=typeof n&&"function"!=typeof n?function(t){if(void 0===t)throw new ReferenceError("this hasn't been initialised - super() hasn't been called");return t}(t):n}function a(t){var n=function(){if("undefined"==typeof Reflect||!Reflect.construct)return!1;if(Reflect.construct.sham)return!1;if("function"==typeof Proxy)return!0;try{return Boolean.prototype.valueOf.call(Reflect.construct(Boolean,[],(function(){}))),!0}catch(t){return!1}}();return function(){var r,e=i(t);if(n){var o=i(this).constructor;r=Reflect.construct(e,arguments,o)}else r=e.apply(this,arguments);return u(this,r)}}function l(t,n,r){return(l="undefined"!=typeof Reflect&&Reflect.get?Reflect.get:function(t,n,r){var e=function(t,n){for(;!Object.prototype.hasOwnProperty.call(t,n)&&null!==(t=i(t)););return t}(t,n);if(e){var o=Object.getOwnPropertyDescriptor(e,n);return o.get?o.get.call(r):o.value}})(t,n,r||t)}var f=Math.abs;function s(t){return t}function c(t,n,r){var e=1-r;return 3*r*e*(t*e+n*r)+r*r*r}function h(){var t=arguments.length>0&&void 0!==arguments[0]?arguments[0]:0,n=arguments.length>1&&void 0!==arguments[1]?arguments[1]:0,r=arguments.length>2&&void 0!==arguments[2]?arguments[2]:1,e=arguments.length>3&&void 0!==arguments[3]?arguments[3]:1;return t<0||t>1||r<0||r>1?null:f(t-n)<=1e-5&&f(r-e)<=1e-5?s:function(i){if(i<=0)return t>0?i*n/t:0===n&&r>0?i*e/r:0;if(i>=1)return r<1?1+(i-1)*(e-1)/(r-1):1===r&&t<1?1+(i-1)*(n-1)/(t-1):1;for(var o,u=0,a=1;u<a;){var l=c(t,r,o=(u+a)/2);if(f(i-l)<1e-5)break;l<i?u=o:a=o}return c(n,e,o)}}function v(){return 1}function y(t){return 1===t?1:0}function d(){var t=arguments.length>0&&void 0!==arguments[0]?arguments[0]:1,n=arguments.length>1&&void 0!==arguments[1]?arguments[1]:0;if(1===t){if(0===n)return y;if(1===n)return v}var r=1/t;return function(t){return t>=1?1:(t+=n*r)-t%r}}function g(t){var n=arguments.length>1&&void 0!==arguments[1]?arguments[1]:2;if(Number.isInteger(t))return t;var r=Math.pow(10,n);return Math.round(t*r)/r}var p=Math.PI/180;function m(t,n,r){return t>=.5?r:n}function b(t,n,r){return 0===t||n===r?n:t*(r-n)+n}function w(t,n,r){var e=b(t,n,r);return e<=0?0:e}function x(t,n,r){return 0===t?n:1===t?r:{x:b(t,n.x,r.x),y:b(t,n.y,r.y)}}function k(t,n,r){var e=function(t,n,r){return Math.round(b(t,n,r))}(t,n,r);return e<=0?0:e>=255?255:e}function A(t,n,r){return 0===t?n:1===t?r:{r:k(t,n.r,r.r),g:k(t,n.g,r.g),b:k(t,n.b,r.b),a:b(t,null==n.a?1:n.a,null==r.a?1:r.a)}}function _(t,n,r){if(0===t)return n;if(1===t)return r;var e=n.length;if(e!==r.length)return m(t,n,r);for(var i=[],o=0;o<e;o++)i.push(A(t,n[o],r[o]));return i}function S(t,n){for(var r=[],e=0;e<t;e++)r.push(n);return r}function O(t,n){if(--n<=0)return t;var r=(t=Object.assign([],t)).length;do{for(var e=0;e<r;e++)t.push(t[e])}while(--n>0);return t}var M,j=function(){function t(r){n(this,t),this.list=r,this.length=r.length}return e(t,[{key:"setAttribute",value:function(t,n){for(var r=this.list,e=0;e<this.length;e++)r[e].setAttribute(t,n)}},{key:"removeAttribute",value:function(t){for(var n=this.list,r=0;r<this.length;r++)n[r].removeAttribute(t)}},{key:"style",value:function(t,n){for(var r=this.list,e=0;e<this.length;e++)r[e].style[t]=n}}]),t}(),F=/-./g,P=function(t,n){return n.toUpperCase()};function B(t){return"function"==typeof t?t:m}function I(t){return t?"function"==typeof t?t:Array.isArray(t)?function(t){var n=arguments.length>1&&void 0!==arguments[1]?arguments[1]:s;if(!Array.isArray(t))return n;switch(t.length){case 1:return d(t[0])||n;case 2:return d(t[0],t[1])||n;case 4:return h(t[0],t[1],t[2],t[3])||n}return n}(t,null):function(t,n){var r=arguments.length>2&&void 0!==arguments[2]?arguments[2]:s;switch(t){case"linear":return s;case"steps":return d(n.steps||1,n.jump||0)||r;case"bezier":case"cubic-bezier":return h(n.x1||0,n.y1||0,n.x2||0,n.y2||0)||r}return r}(t.type,t.value,null):null}function R(t,n,r){var e=arguments.length>3&&void 0!==arguments[3]&&arguments[3],i=n.length-1;if(t<=n[0].t)return e?[0,0,n[0].v]:n[0].v;if(t>=n[i].t)return e?[i,1,n[i].v]:n[i].v;var o,u=n[0],a=null;for(o=1;o<=i;o++){if(!(t>n[o].t)){a=n[o];break}u=n[o]}return null==a?e?[i,1,n[i].v]:n[i].v:u.t===a.t?e?[o,1,a.v]:a.v:(t=(t-u.t)/(a.t-u.t),u.e&&(t=u.e(t)),e?[o,t,r(t,u.v,a.v)]:r(t,u.v,a.v))}function q(t,n){var r=arguments.length>2&&void 0!==arguments[2]?arguments[2]:null;return t&&t.length?"function"!=typeof n?null:("function"!=typeof r&&(r=null),function(e){var i=R(e,t,n);return null!=i&&r&&(i=r(i)),i}):null}function E(t,n){return t.t-n.t}function T(n,r,e,i,o){var u,a="@"===e[0],l="#"===e[0],f=M[e],s=m;switch(a?(u=e.substr(1),e=u.replace(F,P)):l&&(e=e.substr(1)),t(f)){case"function":if(s=f(i,o,R,I,e,a,r,n),l)return s;break;case"string":s=q(i,B(f));break;case"object":if((s=q(i,B(f.i),f.f))&&"function"==typeof f.u)return f.u(r,s,e,a,n)}return s?function(t,n,r){var e=arguments.length>3&&void 0!==arguments[3]&&arguments[3];if(e)return t instanceof j?function(e){return t.style(n,r(e))}:function(e){return t.style[n]=r(e)};if(Array.isArray(n)){var i=n.length;return function(e){var o=r(e);if(null==o)for(var u=0;u<i;u++)t[u].removeAttribute(n);else for(var a=0;a<i;a++)t[a].setAttribute(n,o)}}return function(e){var i=r(e);null==i?t.removeAttribute(n):t.setAttribute(n,i)}}(r,e,s,a):null}function N(n,r,e,i){if(!i||"object"!==t(i))return null;var o=null,u=null;return Array.isArray(i)?u=function(t){if(!t||!t.length)return null;for(var n=0;n<t.length;n++)t[n].e&&(t[n].e=I(t[n].e));return t.sort(E)}(i):(u=i.keys,o=i.data||null),u?T(n,r,e,u,o):null}function C(t,n,r){if(!r)return null;var e=[];for(var i in r)if(r.hasOwnProperty(i)){var o=N(t,n,i,r[i]);o&&e.push(o)}return e.length?e:null}function z(t,n){if(!n.duration||n.duration<0)return null;var r=function(t,n){if(!n)return null;var r=[];if(Array.isArray(n))for(var e=n.length,i=0;i<e;i++){var o=n[i];if(2===o.length){var u=null;if("string"==typeof o[0])u=t.getElementById(o[0]);else if(Array.isArray(o[0])){u=[];for(var a=0;a<o[0].length;a++)if("string"==typeof o[0][a]){var l=t.getElementById(o[0][a]);l&&u.push(l)}u=u.length?1===u.length?u[0]:new j(u):null}if(u){var f=C(t,u,o[1]);f&&(r=r.concat(f))}}}else for(var s in n)if(n.hasOwnProperty(s)){var c=t.getElementById(s);if(c){var h=C(t,c,n[s]);h&&(r=r.concat(h))}}return r.length?r:null}(t,n.elements);return r?function(t,n){var r=arguments.length>2&&void 0!==arguments[2]?arguments[2]:1/0,e=arguments.length>3&&void 0!==arguments[3]?arguments[3]:1,i=arguments.length>4&&void 0!==arguments[4]&&arguments[4],o=arguments.length>5&&void 0!==arguments[5]?arguments[5]:1,u=t.length,a=e>0?n:0;i&&r%2==0&&(a=n-a);var l=null;return function(f,s){var c=f%n,h=1+(f-c)/n;s*=e,i&&h%2==0&&(s=-s);var v=!1;if(h>r)c=a,v=!0,-1===o&&(c=e>0?0:n);else if(s<0&&(c=n-c),c===l)return!1;l=c;for(var y=0;y<u;y++)t[y](c);return v}}(r,n.duration,n.iterations||1/0,n.direction||1,!!n.alternate,n.fill||1):null}var L=function(){function t(r,e){var i=arguments.length>2&&void 0!==arguments[2]?arguments[2]:{};n(this,t),this._id=0,this._running=!1,this._rollingBack=!1,this._animations=r,this.duration=e.duration,this.alternate=e.alternate,this.fill=e.fill,this.iterations=e.iterations,this.direction=i.direction||1,this.speed=i.speed||1,this.fps=i.fps||100,this.offset=i.offset||0,this.rollbackStartOffset=0}return e(t,[{key:"_rollback",value:function(){var t=this,n=1/0,r=null;this.rollbackStartOffset=this.offset,this._rollingBack||(this._rollingBack=!0,this._running=!0);this._id=window.requestAnimationFrame((function e(i){if(t._rollingBack){null==r&&(r=i);var o=i-r,u=t.rollbackStartOffset-o,a=Math.round(u*t.speed);if(a>t.duration&&n!=1/0){var l=!!t.alternate&&a/t.duration%2>1,f=a%t.duration;a=(f+=l?t.duration:0)||t.duration}var s=t.fps?1e3/t.fps:0,c=Math.max(0,a);if(c<n-s){t.offset=c,n=c;for(var h=t._animations,v=h.length,y=0;y<v;y++)h[y](c,t.direction)}var d=!1;if(t.iterations>0&&-1===t.fill){var g=t.iterations*t.duration,p=g==a;a=p?0:a,t.offset=p?0:t.offset,d=a>g}a>0&&t.offset>=a&&!d?t._id=window.requestAnimationFrame(e):t.stop()}}))}},{key:"_start",value:function(){var t=this,n=arguments.length>0&&void 0!==arguments[0]?arguments[0]:0,r=-1/0,e=null,i={},o=function o(u){t._running=!0,null==e&&(e=u);var a=Math.round((u-e+n)*t.speed),l=t.fps?1e3/t.fps:0;if(a>r+l&&!t._rollingBack){t.offset=a,r=a;for(var f=t._animations,s=f.length,c=0,h=0;h<s;h++)i[h]?c++:(i[h]=f[h](a,t.direction),i[h]&&c++);if(c===s)return void t._stop()}t._id=window.requestAnimationFrame(o)};this._id=window.requestAnimationFrame(o)}},{key:"_stop",value:function(){this._id&&window.cancelAnimationFrame(this._id),this._running=!1,this._rollingBack=!1}},{key:"play",value:function(){!this._rollingBack&&this._running||(this._rollingBack=!1,this.rollbackStartOffset>this.duration&&(this.offset=this.rollbackStartOffset-(this.rollbackStartOffset-this.offset)%this.duration,this.rollbackStartOffset=0),this._start(this.offset))}},{key:"stop",value:function(){this._stop(),this.offset=0,this.rollbackStartOffset=0;var t=this.direction,n=this._animations;window.requestAnimationFrame((function(){for(var r=0;r<n.length;r++)n[r](0,t)}))}},{key:"reachedToEnd",value:function(){return this.iterations>0&&this.offset>=this.iterations*this.duration}},{key:"restart",value:function(){this._stop(),this.offset=0,this._start()}},{key:"pause",value:function(){this._stop()}},{key:"reverse",value:function(){this.direction=-this.direction}}],[{key:"build",value:function(n,r){return(n=function(t,n){if(M=n,!t||!t.root||!Array.isArray(t.animations))return null;for(var r=document.getElementsByTagName("svg"),e=!1,i=0;i<r.length;i++)if(r[i].id===t.root&&!r[i].svgatorAnimation){(e=r[i]).svgatorAnimation=!0;break}if(!e)return null;var o=t.animations.map((function(t){return z(e,t)})).filter((function(t){return!!t}));return o.length?{element:e,animations:o,animationSettings:t.animationSettings,options:t.options||void 0}:null}(n,r))?{el:n.element,options:n.options||{},player:new t(n.animations,n.animationSettings,n.options)}:null}}]),t}();!function(){for(var t=0,n=["ms","moz","webkit","o"],r=0;r<n.length&&!window.requestAnimationFrame;++r)window.requestAnimationFrame=window[n[r]+"RequestAnimationFrame"],window.cancelAnimationFrame=window[n[r]+"CancelAnimationFrame"]||window[n[r]+"CancelRequestAnimationFrame"];window.requestAnimationFrame||(window.requestAnimationFrame=function(n){var r=Date.now(),e=Math.max(0,16-(r-t)),i=window.setTimeout((function(){n(r+e)}),e);return t=r+e,i},window.cancelAnimationFrame=window.clearTimeout)}();var D=/\.0+$/g;function Q(t){return Number.isInteger(t)?t+"":t.toFixed(6).replace(D,"")}function U(t){var n=arguments.length>1&&void 0!==arguments[1]?arguments[1]:" ";return t&&t.length?t.map(Q).join(n):""}function V(t){return t?null==t.a||t.a>=1?"rgb("+t.r+","+t.g+","+t.b+")":"rgba("+t.r+","+t.g+","+t.b+","+t.a+")":"transparent"}var $={f:null,i:function(t,n,r){return 0===t?n:1===t?r:{x:w(t,n.x,r.x),y:w(t,n.y,r.y)}},u:function(t,n){return function(r){var e=n(r);t.setAttribute("rx",Q(e.x)),t.setAttribute("ry",Q(e.y))}}},G={f:null,i:function(t,n,r){return 0===t?n:1===t?r:{width:w(t,n.width,r.width),height:w(t,n.height,r.height)}},u:function(t,n){return function(r){var e=n(r);t.setAttribute("width",Q(e.width)),t.setAttribute("height",Q(e.height))}}},H=Math.sin,Y=Math.cos,Z=Math.acos,J=Math.asin,K=Math.tan,W=Math.atan2,X=Math.PI/180,tt=180/Math.PI,nt=Math.sqrt,rt=function(){function t(){var r=arguments.length>0&&void 0!==arguments[0]?arguments[0]:1,e=arguments.length>1&&void 0!==arguments[1]?arguments[1]:0,i=arguments.length>2&&void 0!==arguments[2]?arguments[2]:0,o=arguments.length>3&&void 0!==arguments[3]?arguments[3]:1,u=arguments.length>4&&void 0!==arguments[4]?arguments[4]:0,a=arguments.length>5&&void 0!==arguments[5]?arguments[5]:0;n(this,t),this.m=[r,e,i,o,u,a],this.i=null,this.w=null,this.s=null}return e(t,[{key:"determinant",get:function(){var t=this.m;return t[0]*t[3]-t[1]*t[2]}},{key:"isIdentity",get:function(){if(null===this.i){var t=this.m;this.i=1===t[0]&&0===t[1]&&0===t[2]&&1===t[3]&&0===t[4]&&0===t[5]}return this.i}},{key:"point",value:function(t,n){var r=this.m;return{x:r[0]*t+r[2]*n+r[4],y:r[1]*t+r[3]*n+r[5]}}},{key:"translateSelf",value:function(){var t=arguments.length>0&&void 0!==arguments[0]?arguments[0]:0,n=arguments.length>1&&void 0!==arguments[1]?arguments[1]:0;if(!t&&!n)return this;var r=this.m;return r[4]+=r[0]*t+r[2]*n,r[5]+=r[1]*t+r[3]*n,this.w=this.s=this.i=null,this}},{key:"rotateSelf",value:function(){var t=arguments.length>0&&void 0!==arguments[0]?arguments[0]:0;if(t%=360){var n=H(t*=X),r=Y(t),e=this.m,i=e[0],o=e[1];e[0]=i*r+e[2]*n,e[1]=o*r+e[3]*n,e[2]=e[2]*r-i*n,e[3]=e[3]*r-o*n,this.w=this.s=this.i=null}return this}},{key:"scaleSelf",value:function(){var t=arguments.length>0&&void 0!==arguments[0]?arguments[0]:1,n=arguments.length>1&&void 0!==arguments[1]?arguments[1]:1;if(1!==t||1!==n){var r=this.m;r[0]*=t,r[1]*=t,r[2]*=n,r[3]*=n,this.w=this.s=this.i=null}return this}},{key:"skewSelf",value:function(t,n){if(n%=360,(t%=360)||n){var r=this.m,e=r[0],i=r[1],o=r[2],u=r[3];t&&(t=K(t*X),r[2]+=e*t,r[3]+=i*t),n&&(n=K(n*X),r[0]+=o*n,r[1]+=u*n),this.w=this.s=this.i=null}return this}},{key:"resetSelf",value:function(){var t=arguments.length>0&&void 0!==arguments[0]?arguments[0]:1,n=arguments.length>1&&void 0!==arguments[1]?arguments[1]:0,r=arguments.length>2&&void 0!==arguments[2]?arguments[2]:0,e=arguments.length>3&&void 0!==arguments[3]?arguments[3]:1,i=arguments.length>4&&void 0!==arguments[4]?arguments[4]:0,o=arguments.length>5&&void 0!==arguments[5]?arguments[5]:0,u=this.m;return u[0]=t,u[1]=n,u[2]=r,u[3]=e,u[4]=i,u[5]=o,this.w=this.s=this.i=null,this}},{key:"recomposeSelf",value:function(){var t=arguments.length>0&&void 0!==arguments[0]?arguments[0]:null,n=arguments.length>1&&void 0!==arguments[1]?arguments[1]:null,r=arguments.length>2&&void 0!==arguments[2]?arguments[2]:null,e=arguments.length>3&&void 0!==arguments[3]?arguments[3]:null,i=arguments.length>4&&void 0!==arguments[4]?arguments[4]:null;return this.isIdentity||this.resetSelf(),t&&(t.x||t.y)&&this.translateSelf(t.x,t.y),n&&this.rotateSelf(n),r&&(r.x&&this.skewSelf(r.x,0),r.y&&this.skewSelf(0,r.y)),!e||1===e.x&&1===e.y||this.scaleSelf(e.x,e.y),i&&(i.x||i.y)&&this.translateSelf(i.x,i.y),this}},{key:"decompose",value:function(){var t=arguments.length>0&&void 0!==arguments[0]?arguments[0]:0,n=arguments.length>1&&void 0!==arguments[1]?arguments[1]:0,r=this.m,e=r[0]*r[0]+r[1]*r[1],i=[[r[0],r[1]],[r[2],r[3]]],o=nt(e);if(0===o)return{origin:{x:r[4],y:r[5]},translate:{x:t,y:n},scale:{x:0,y:0},skew:{x:0,y:0},rotate:0};i[0][0]/=o,i[0][1]/=o;var u=r[0]*r[3]-r[1]*r[2]<0;u&&(o=-o);var a=i[0][0]*i[1][0]+i[0][1]*i[1][1];i[1][0]-=i[0][0]*a,i[1][1]-=i[0][1]*a;var l=nt(i[1][0]*i[1][0]+i[1][1]*i[1][1]);if(0===l)return{origin:{x:r[4],y:r[5]},translate:{x:t,y:n},scale:{x:o,y:0},skew:{x:0,y:0},rotate:0};i[1][0]/=l,i[1][1]/=l,a/=l;var f=0;return i[1][1]<0?(f=Z(i[1][1])*tt,i[0][1]<0&&(f=360-f)):f=J(i[0][1])*tt,u&&(f=-f),a=W(a,nt(i[0][0]*i[0][0]+i[0][1]*i[0][1]))*tt,u&&(a=-a),{origin:{x:r[4],y:r[5]},translate:{x:t,y:n},scale:{x:o,y:l},skew:{x:a,y:0},rotate:f}}},{key:"toString",value:function(){return null===this.s&&(this.s="matrix("+this.m.map(it).join(" ")+")"),this.s}}]),t}(),et=/\.0+$/;function it(t){return Number.isInteger(t)?t:t.toFixed(14).replace(et,"")}Object.freeze({M:2,L:2,Z:0,H:1,V:1,C:6,Q:4,T:2,S:4,A:7});var ot={},ut=null;function at(n){var r=function(){if(ut)return ut;if("object"!==("undefined"==typeof document?"undefined":t(document)))return{};var n=document.createElementNS("http://www.w3.org/2000/svg","svg");return n.style.position="absolute",n.style.opacity="0.01",n.style.zIndex="-9999",n.style.left="-9999px",n.style.width="1px",n.style.height="1px",ut={svg:n}}().svg;if(!r)return function(t){return null};var e=document.createElementNS(r.namespaceURI,"path");e.setAttributeNS(null,"d",n),e.setAttributeNS(null,"fill","none"),e.setAttributeNS(null,"stroke","none"),r.appendChild(e);var i=e.getTotalLength();return function(t){var n=e.getPointAtLength(i*t);return{x:n.x,y:n.y}}}function lt(t){return ot[t]?ot[t]:ot[t]=at(t)}function ft(t,n,r,e){if(!t||!e)return!1;var i=["M",t.x,t.y];if(n&&r&&(i.push("C"),i.push(n.x),i.push(n.y),i.push(r.x),i.push(r.y)),n?!r:r){var o=n||r;i.push("Q"),i.push(o.x),i.push(o.y)}return n||r||i.push("L"),i.push(e.x),i.push(e.y),i.join(" ")}function st(t,n,r,e){var i=arguments.length>4&&void 0!==arguments[4]?arguments[4]:1,o=ft(t,n,r,e),u=lt(o);try{return u(i)}catch(t){return null}}function ct(t,n,r,e){var i=1-e;return i*i*t+2*i*e*n+e*e*r}function ht(t,n,r,e){return 2*(1-e)*(n-t)+2*e*(r-n)}function vt(t,n,r,e){var i=arguments.length>4&&void 0!==arguments[4]&&arguments[4],o=st(t,n,null,r,e);return o||(o={x:ct(t.x,n.x,r.x,e),y:ct(t.y,n.y,r.y,e)}),i&&(o.a=yt(t,n,r,e)),o}function yt(t,n,r,e){return Math.atan2(ht(t.y,n.y,r.y,e),ht(t.x,n.x,r.x,e))}function dt(t,n,r,e,i){var o=i*i;return i*o*(e-t+3*(n-r))+3*o*(t+r-2*n)+3*i*(n-t)+t}function gt(t,n,r,e,i){var o=1-i;return 3*(o*o*(n-t)+2*o*i*(r-n)+i*i*(e-r))}function pt(t,n,r,e,i){var o=arguments.length>5&&void 0!==arguments[5]&&arguments[5],u=st(t,n,r,e,i);return u||(u={x:dt(t.x,n.x,r.x,e.x,i),y:dt(t.y,n.y,r.y,e.y,i)}),o&&(u.a=mt(t,n,r,e,i)),u}function mt(t,n,r,e,i){return Math.atan2(gt(t.y,n.y,r.y,e.y,i),gt(t.x,n.x,r.x,e.x,i))}function bt(t,n,r){return t+(n-t)*r}function wt(t,n,r){var e=arguments.length>3&&void 0!==arguments[3]&&arguments[3],i={x:bt(t.x,n.x,r),y:bt(t.y,n.y,r)};return e&&(i.a=xt(t,n)),i}function xt(t,n){return Math.atan2(n.y-t.y,n.x-t.x)}function kt(t,n,r){var e=arguments.length>3&&void 0!==arguments[3]&&arguments[3];if(_t(n)){if(St(r))return vt(n,r.start,r,t,e)}else if(_t(r)){if(n.end)return vt(n,n.end,r,t,e)}else{if(n.end)return r.start?pt(n,n.end,r.start,r,t,e):vt(n,n.end,r,t,e);if(r.start)return vt(n,r.start,r,t,e)}return wt(n,r,t,e)}function At(t,n,r){var e=kt(t,n,r,!0);return e.a=function(t){var n=arguments.length>1&&void 0!==arguments[1]&&arguments[1];return n?t+Math.PI:t}(e.a)/p,e}function _t(t){return!t.type||"corner"===t.type}function St(t){return null!=t.start&&!_t(t)}var Ot=new rt;var Mt={f:Q,i:b},jt={f:Q,i:function(t,n,r){var e=b(t,n,r);return e<=0?0:e>=1?1:e}};function Ft(t,n,r,e,i,o,u,a){return n=function(t,n,r){for(var e,i,o,u=t.length-1,a={},l=0;l<=u;l++)(e=t[l]).e&&(e.e=n(e.e)),e.v&&"g"===(i=e.v).t&&i.r&&(o=r.getElementById(i.r))&&(a[i.r]=o.querySelectorAll("stop"));return a}(t,e,a),function(e){var i,o=r(e,t,Pt);return o?"c"===o.t?V(o.v):"g"===o.t?(n[o.r]&&function(t,n){for(var r=0,e=t.length;r<e;r++)t[r].setAttribute("stop-color",V(n[r]))}(n[o.r],o.v),(i=o.r)?"url(#"+i+")":"none"):"none":"none"}}function Pt(t,n,r){if(0===t)return n;if(1===t)return r;if(n&&r){var e=n.t;if(e===r.t)switch(n.t){case"c":return{t:e,v:A(t,n.v,r.v)};case"g":if(n.r===r.r)return{t:e,v:_(t,n.v,r.v),r:n.r}}}return m(t,n,r)}var Bt={fill:Ft,"fill-opacity":jt,stroke:Ft,"stroke-opacity":jt,"stroke-width":Mt,"stroke-dashoffset":{f:Q,i:b},"stroke-dasharray":{f:function(t){var n=arguments.length>1&&void 0!==arguments[1]?arguments[1]:" ";return t&&t.length>0&&(t=t.map((function(t){return Math.floor(1e4*t)/1e4}))),U(t,n)},i:function(t,n,r){var e,i,o,u=n.length,a=r.length;if(u!==a)if(0===u)n=S(u=a,0);else if(0===a)a=u,r=S(u,0);else{var l=(o=(e=u)*(i=a)/function(t,n){for(var r;n;)r=n,n=t%n,t=r;return t||1}(e,i))<0?-o:o;n=O(n,Math.floor(l/u)),r=O(r,Math.floor(l/a)),u=a=l}for(var f=[],s=0;s<u;s++)f.push(g(w(t,n[s],r[s]),6));return f}},opacity:jt,transform:function(n,r,e,i){if(!(n=function(n,r){if(!n||"object"!==t(n))return null;var e=!1;for(var i in n)n.hasOwnProperty(i)&&(n[i]&&n[i].length?(n[i].forEach((function(t){t.e&&(t.e=r(t.e))})),e=!0):delete n[i]);return e?n:null}(n,i)))return null;var o=function(t,i,o){var u=arguments.length>3&&void 0!==arguments[3]?arguments[3]:null;return n[t]?e(i,n[t],o):r&&r[t]?r[t]:u};return r&&r.a&&n.o?function(t){var r=e(t,n.o,At);return Ot.recomposeSelf(r,o("r",t,b,0)+r.a,o("k",t,x),o("s",t,x),o("t",t,x)).toString()}:function(t){return Ot.recomposeSelf(o("o",t,kt,null),o("r",t,b,0),o("k",t,x),o("s",t,x),o("t",t,x)).toString()}},r:Mt,"#size":G,"#radius":$,_:function(t,n){if(Array.isArray(t))for(var r=0;r<t.length;r++)this[t[r]]=n;else this[t]=n}};return function(t){!function(t,n){if("function"!=typeof n&&null!==n)throw new TypeError("Super expression must either be null or a function");t.prototype=Object.create(n&&n.prototype,{constructor:{value:t,writable:!0,configurable:!0}}),n&&o(t,n)}(u,t);var r=a(u);function u(){return n(this,u),r.apply(this,arguments)}return e(u,null,[{key:"build",value:function(t){var n=l(i(u),"build",this).call(this,t,Bt);n.el,n.options;var r=n.player;return function(t,n,r){t.play()}(r),r}}]),u}(L)}));
__SVGATOR_PLAYER__.build({"root":"eMnGObgrzuD1","animations":[{"duration":3000,"direction":1,"iterations":0,"fill":1,"alternate":false,"speed":1,"elements":{"eMnGObgrzuD12":{"transform":{"data":{"t":{"x":-33.47,"y":-15.858478999999999}},"keys":{"o":[{"t":0,"v":{"x":33.56499755859375,"y":-4.749999980926514,"type":"corner"}},{"t":300,"v":{"x":33.475,"y":15.378478999999999,"type":"corner"}}]}}},"eMnGObgrzuD13":{"transform":{"data":{"t":{"x":-33.480000495910645,"y":-51.78999710083008}},"keys":{"o":[{"t":700,"v":{"x":34.03000049591065,"y":58.87999710083008,"type":"corner"}},{"t":900,"v":{"x":34.03000049591063,"y":52.59999710083009,"type":"corner"}}]}}},"eMnGObgrzuD14":{"transform":{"data":{"t":{"x":-33.47500133514404,"y":-54.81999969482422}},"keys":{"o":[{"t":700,"v":{"x":34.02500133514405,"y":61.90999969482422,"type":"corner"}},{"t":900,"v":{"x":34.025001335144026,"y":55.62999969482423,"type":"corner"}}]}}},"eMnGObgrzuD15":{"opacity":[{"t":300,"v":0},{"t":700,"v":1}]},"eMnGObgrzuD16":{"opacity":[{"t":300,"v":0},{"t":700,"v":1}]},"eMnGObgrzuD17":{"transform":{"data":{"o":{"x":15.820000171661377,"y":32.56500053405762,"type":"corner"},"t":{"x":-10.850000171661378,"y":-5.795000534057618}},"keys":{"s":[{"t":1300,"v":{"x":0,"y":0}},{"t":1700,"v":{"x":1,"y":1}}]}}},"eMnGObgrzuD18":{"transform":{"data":{"o":{"x":15.655000286102297,"y":32.564998626708984,"type":"corner"},"t":{"x":-8.925000286102295,"y":-4.264998626708984}},"keys":{"s":[{"t":1300,"v":{"x":0,"y":0}},{"t":1700,"v":{"x":1,"y":1}}]}}},"eMnGObgrzuD19":{"transform":{"data":{"o":{"x":15.819999933242796,"y":42.064998626708984,"type":"corner"},"t":{"x":-15.944999933242798,"y":-42.064998626708984}},"keys":{"s":[{"t":1300,"v":{"x":0,"y":0}},{"t":1700,"v":{"x":1,"y":1}}]}}},"eMnGObgrzuD20":{"transform":{"data":{"o":{"x":15.819999771118166,"y":42.05202865600586,"type":"corner"},"t":{"x":-15.989999771118164,"y":-42.05202865600586}},"keys":{"s":[{"t":1300,"v":{"x":0,"y":0}},{"t":1700,"v":{"x":1,"y":1}}]}}},"eMnGObgrzuD21":{"transform":{"data":{"o":{"x":49.40500068664551,"y":30.550000190734863,"type":"corner"},"t":{"x":-49.40500068664551,"y":-30.550000190734863}},"keys":{"s":[{"t":1700,"v":{"x":0,"y":0}},{"t":2200,"v":{"x":1,"y":1}}]}}},"eMnGObgrzuD22":{"transform":{"data":{"o":{"x":53.34000205993652,"y":32.31999969482422,"type":"corner"},"t":{"x":-9.260002059936525,"y":-6.389999694824219}},"keys":{"s":[{"t":1700,"v":{"x":0,"y":0}},{"t":2200,"v":{"x":1,"y":1}}]}}},"eMnGObgrzuD24":{"transform":{"data":{"o":{"x":53.17999839782715,"y":27.649999618530273,"type":"corner"},"t":{"x":-57.17999839782715,"y":-27.649999618530273}},"keys":{"s":[{"t":1700,"v":{"x":0,"y":0}},{"t":2200,"v":{"x":1,"y":1}}]}}},"eMnGObgrzuD25":{"transform":{"data":{"o":{"x":53.17999839782715,"y":28.760000228881836,"type":"corner"},"t":{"x":-57.17999839782715,"y":-28.760000228881836}},"keys":{"s":[{"t":1700,"v":{"x":0,"y":0}},{"t":2200,"v":{"x":1,"y":1}}]}}},"eMnGObgrzuD26":{"transform":{"data":{"o":{"x":45.22500228881836,"y":27.194998741149902,"type":"corner"},"t":{"x":-0.23500228881835739,"y":-0.2349987411499015}},"keys":{"s":[{"t":1700,"v":{"x":0,"y":0}},{"t":2200,"v":{"x":1,"y":1}}]}}},"eMnGObgrzuD27":{"transform":{"data":{"o":{"x":46.13500213623047,"y":27.194998741149902,"type":"corner"},"t":{"x":-0.23500213623047017,"y":-0.2349987411499015}},"keys":{"s":[{"t":1700,"v":{"x":0,"y":0}},{"t":2200,"v":{"x":1,"y":1}}]}}},"eMnGObgrzuD28":{"transform":{"data":{"o":{"x":47.03499984741211,"y":27.194998741149902,"type":"corner"},"t":{"x":-0.23499984741211222,"y":-0.2349987411499015}},"keys":{"s":[{"t":1700,"v":{"x":0,"y":0}},{"t":2200,"v":{"x":1,"y":1}}]}}},"eMnGObgrzuD29":{"opacity":[{"t":300,"v":0},{"t":700,"v":1}]},"eMnGObgrzuD30":{"transform":{"data":{"t":{"x":-68.07500076293945,"y":-21.804999351501465}},"keys":{"o":[{"t":2200,"v":{"x":68.07500076293945,"y":-6.00500064849853,"type":"corner"}},{"t":2600,"v":{"x":68.28500076293946,"y":24.544999351501453,"type":"corner"}}]}}},"eMnGObgrzuD31":{"transform":{"data":{"t":{"x":-76.375,"y":-21.804999351501465}},"keys":{"o":[{"t":2200,"v":{"x":76.375,"y":-6.00500064849853,"type":"corner"}},{"t":2600,"v":{"x":76.58500000000001,"y":24.544999351501453,"type":"corner"}}]}}},"eMnGObgrzuD32":{"transform":{"data":{"t":{"x":-87.80999755859375,"y":-21.77500057220459}},"keys":{"o":[{"t":2200,"v":{"x":87.80999755859375,"y":-6.034999427795405,"type":"corner"}},{"t":2600,"v":{"x":88.01999755859376,"y":24.515000572204578,"type":"corner"}}]}}},"eMnGObgrzuD33":{"transform":{"data":{"t":{"x":-101.18999481201172,"y":-21.804999351501465}},"keys":{"o":[{"t":2200,"v":{"x":101.18999481201172,"y":-6.00500064849853,"type":"corner"}},{"t":2600,"v":{"x":101.39999481201173,"y":24.544999351501453,"type":"corner"}}]}}},"eMnGObgrzuD34":{"transform":{"data":{"t":{"x":-111.90999984741211,"y":-21.804999351501465}},"keys":{"o":[{"t":2200,"v":{"x":111.90999984741211,"y":-6.00500064849853,"type":"corner"}},{"t":2600,"v":{"x":112.11999984741212,"y":24.544999351501453,"type":"corner"}}]}}},"eMnGObgrzuD35":{"transform":{"data":{"t":{"x":-84.31000518798828,"y":-41.0100040435791}},"keys":{"o":[{"t":2600,"v":{"x":85.69500518798827,"y":64.04000404357893,"type":"corner"}},{"t":3000,"v":{"x":85.69500518798827,"y":37.81000404357887,"type":"corner"}}]}}},"eMnGObgrzuD36":{"transform":{"data":{"t":{"x":-71.45500183105469,"y":-41.00999641418457}},"keys":{"o":[{"t":2600,"v":{"x":72.84000183105468,"y":64.0399964141844,"type":"corner"}},{"t":3000,"v":{"x":72.84000183105468,"y":37.80999641418434,"type":"corner"}}]}}},"eMnGObgrzuD37":{"transform":{"data":{"t":{"x":-98.13500213623047,"y":-41.00999641418457}},"keys":{"o":[{"t":2600,"v":{"x":99.52000213623046,"y":64.0399964141844,"type":"corner"}},{"t":3000,"v":{"x":99.52000213623046,"y":37.80999641418434,"type":"corner"}}]}}},"eMnGObgrzuD38":{"transform":{"data":{"t":{"x":-109.03499984741211,"y":-41.0049991607666}},"keys":{"o":[{"t":2600,"v":{"x":110.4199998474121,"y":64.03499916076643,"type":"corner"}},{"t":3000,"v":{"x":110.4199998474121,"y":37.80499916076637,"type":"corner"}}]}}},"eMnGObgrzuD39":{"transform":{"data":{"t":{"x":-15.010000944137573,"y":-47.084999084472656}},"keys":{"o":[{"t":900,"v":{"x":15.205000944137566,"y":65.1849990844726,"type":"corner"}},{"t":1300,"v":{"x":15.205000944137566,"y":47.4649990844724,"type":"corner"}}]}}},"eMnGObgrzuD40":{"transform":{"data":{"t":{"x":-51.91000175476074,"y":-42.21499824523926}},"keys":{"o":[{"t":900,"v":{"x":52.105001754760735,"y":60.31499824523919,"type":"corner"}},{"t":1300,"v":{"x":52.105001754760735,"y":42.594998245239,"type":"corner"}}]}}},"eMnGObgrzuD41":{"opacity":[{"t":300,"v":0},{"t":700,"v":1}]}}}],"options":{"start":"load","hover":"freeze","click":"freeze","scroll":25,"font":"embed","exportedIds":"unique","svgFormat":"animated","title":"logosvg"},"animationSettings":{"duration":3000,"direction":1,"iterations":0,"fill":1,"alternate":false,"speed":1}})]]>
  </script>
</svg>