<svg id="eNhqaHslkJG1" xmlns="http://www.w3.org/2000/svg" xmlns:xlink="http://www.w3.org/1999/xlink" viewBox="0 0 116 58" shape-rendering="geometricPrecision" text-rendering="geometricPrecision">
  <style>
    <![CDATA[#eNhqaHslkJG12_to {animation: eNhqaHslkJG12_to__to 3000ms linear infinite normal forwards}@keyframes eNhqaHslkJG12_to__to { 0% {transform: translate(33.564998px,-4.750000px)} 10% {transform: translate(33.475000px,15.378479px)} 100% {transform: translate(33.475000px,15.378479px)}} #eNhqaHslkJG13_to {animation: eNhqaHslkJG13_to__to 3000ms linear infinite normal forwards}@keyframes eNhqaHslkJG13_to__to { 0% {transform: translate(34.030000px,58.879997px)} 23.333333% {transform: translate(34.030000px,58.879997px)} 30% {transform: translate(34.030000px,52.599997px)} 100% {transform: translate(34.030000px,52.599997px)}} #eNhqaHslkJG14_to {animation: eNhqaHslkJG14_to__to 3000ms linear infinite normal forwards}@keyframes eNhqaHslkJG14_to__to { 0% {transform: translate(34.025001px,61.910000px)} 23.333333% {transform: translate(34.025001px,61.910000px)} 30% {transform: translate(34.025001px,55.630000px)} 100% {transform: translate(34.025001px,55.630000px)}} #eNhqaHslkJG15 {animation: eNhqaHslkJG15_c_o 3000ms linear infinite normal forwards}@keyframes eNhqaHslkJG15_c_o { 0% {opacity: 0} 10% {opacity: 0} 23.333333% {opacity: 1} 100% {opacity: 1}} #eNhqaHslkJG16 {animation: eNhqaHslkJG16_c_o 3000ms linear infinite normal forwards}@keyframes eNhqaHslkJG16_c_o { 0% {opacity: 0} 10% {opacity: 0} 23.333333% {opacity: 1} 100% {opacity: 1}} #eNhqaHslkJG17_ts {animation: eNhqaHslkJG17_ts__ts 3000ms linear infinite normal forwards}@keyframes eNhqaHslkJG17_ts__ts { 0% {transform: translate(15.820000px,32.565001px) scale(0,0)} 43.333333% {transform: translate(15.820000px,32.565001px) scale(0,0)} 56.666667% {transform: translate(15.820000px,32.565001px) scale(1,1)} 100% {transform: translate(15.820000px,32.565001px) scale(1,1)}} #eNhqaHslkJG18_ts {animation: eNhqaHslkJG18_ts__ts 3000ms linear infinite normal forwards}@keyframes eNhqaHslkJG18_ts__ts { 0% {transform: translate(15.655000px,32.564999px) scale(0,0)} 43.333333% {transform: translate(15.655000px,32.564999px) scale(0,0)} 56.666667% {transform: translate(15.655000px,32.564999px) scale(1,1)} 100% {transform: translate(15.655000px,32.564999px) scale(1,1)}} #eNhqaHslkJG19_ts {animation: eNhqaHslkJG19_ts__ts 3000ms linear infinite normal forwards}@keyframes eNhqaHslkJG19_ts__ts { 0% {transform: translate(15.820000px,42.064999px) scale(0,0)} 43.333333% {transform: translate(15.820000px,42.064999px) scale(0,0)} 56.666667% {transform: translate(15.820000px,42.064999px) scale(1,1)} 100% {transform: translate(15.820000px,42.064999px) scale(1,1)}} #eNhqaHslkJG20_ts {animation: eNhqaHslkJG20_ts__ts 3000ms linear infinite normal forwards}@keyframes eNhqaHslkJG20_ts__ts { 0% {transform: translate(15.820000px,42.052029px) scale(0,0)} 43.333333% {transform: translate(15.820000px,42.052029px) scale(0,0)} 56.666667% {transform: translate(15.820000px,42.052029px) scale(1,1)} 100% {transform: translate(15.820000px,42.052029px) scale(1,1)}} #eNhqaHslkJG21_ts {animation: eNhqaHslkJG21_ts__ts 3000ms linear infinite normal forwards}@keyframes eNhqaHslkJG21_ts__ts { 0% {transform: translate(49.405001px,30.550000px) scale(0,0)} 56.666667% {transform: translate(49.405001px,30.550000px) scale(0,0)} 73.333333% {transform: translate(49.405001px,30.550000px) scale(1,1)} 100% {transform: translate(49.405001px,30.550000px) scale(1,1)}} #eNhqaHslkJG22_ts {animation: eNhqaHslkJG22_ts__ts 3000ms linear infinite normal forwards}@keyframes eNhqaHslkJG22_ts__ts { 0% {transform: translate(53.340002px,32.320000px) scale(0,0)} 56.666667% {transform: translate(53.340002px,32.320000px) scale(0,0)} 73.333333% {transform: translate(53.340002px,32.320000px) scale(1,1)} 100% {transform: translate(53.340002px,32.320000px) scale(1,1)}} #eNhqaHslkJG24_ts {animation: eNhqaHslkJG24_ts__ts 3000ms linear infinite normal forwards}@keyframes eNhqaHslkJG24_ts__ts { 0% {transform: translate(53.179998px,27.650000px) scale(0,0)} 56.666667% {transform: translate(53.179998px,27.650000px) scale(0,0)} 73.333333% {transform: translate(53.179998px,27.650000px) scale(1,1)} 100% {transform: translate(53.179998px,27.650000px) scale(1,1)}} #eNhqaHslkJG25_ts {animation: eNhqaHslkJG25_ts__ts 3000ms linear infinite normal forwards}@keyframes eNhqaHslkJG25_ts__ts { 0% {transform: translate(53.179998px,28.760000px) scale(0,0)} 56.666667% {transform: translate(53.179998px,28.760000px) scale(0,0)} 73.333333% {transform: translate(53.179998px,28.760000px) scale(1,1)} 100% {transform: translate(53.179998px,28.760000px) scale(1,1)}} #eNhqaHslkJG26_ts {animation: eNhqaHslkJG26_ts__ts 3000ms linear infinite normal forwards}@keyframes eNhqaHslkJG26_ts__ts { 0% {transform: translate(45.225002px,27.194999px) scale(0,0)} 56.666667% {transform: translate(45.225002px,27.194999px) scale(0,0)} 73.333333% {transform: translate(45.225002px,27.194999px) scale(1,1)} 100% {transform: translate(45.225002px,27.194999px) scale(1,1)}} #eNhqaHslkJG27_ts {animation: eNhqaHslkJG27_ts__ts 3000ms linear infinite normal forwards}@keyframes eNhqaHslkJG27_ts__ts { 0% {transform: translate(46.135002px,27.194999px) scale(0,0)} 56.666667% {transform: translate(46.135002px,27.194999px) scale(0,0)} 73.333333% {transform: translate(46.135002px,27.194999px) scale(1,1)} 100% {transform: translate(46.135002px,27.194999px) scale(1,1)}} #eNhqaHslkJG28_ts {animation: eNhqaHslkJG28_ts__ts 3000ms linear infinite normal forwards}@keyframes eNhqaHslkJG28_ts__ts { 0% {transform: translate(47.035000px,27.194999px) scale(0,0)} 56.666667% {transform: translate(47.035000px,27.194999px) scale(0,0)} 73.333333% {transform: translate(47.035000px,27.194999px) scale(1,1)} 100% {transform: translate(47.035000px,27.194999px) scale(1,1)}} #eNhqaHslkJG29 {animation: eNhqaHslkJG29_c_o 3000ms linear infinite normal forwards}@keyframes eNhqaHslkJG29_c_o { 0% {opacity: 0} 10% {opacity: 0} 23.333333% {opacity: 1} 100% {opacity: 1}} #eNhqaHslkJG30_to {animation: eNhqaHslkJG30_to__to 3000ms linear infinite normal forwards}@keyframes eNhqaHslkJG30_to__to { 0% {transform: translate(68.075001px,-6.005001px)} 73.333333% {transform: translate(68.075001px,-6.005001px)} 86.666667% {transform: translate(68.285001px,24.544999px)} 100% {transform: translate(68.285001px,24.544999px)}} #eNhqaHslkJG31_to {animation: eNhqaHslkJG31_to__to 3000ms linear infinite normal forwards}@keyframes eNhqaHslkJG31_to__to { 0% {transform: translate(76.375000px,-6.005001px)} 73.333333% {transform: translate(76.375000px,-6.005001px)} 86.666667% {transform: translate(76.585000px,24.544999px)} 100% {transform: translate(76.585000px,24.544999px)}} #eNhqaHslkJG32_to {animation: eNhqaHslkJG32_to__to 3000ms linear infinite normal forwards}@keyframes eNhqaHslkJG32_to__to { 0% {transform: translate(87.809998px,-6.034999px)} 73.333333% {transform: translate(87.809998px,-6.034999px)} 86.666667% {transform: translate(88.019998px,24.515001px)} 100% {transform: translate(88.019998px,24.515001px)}} #eNhqaHslkJG33_to {animation: eNhqaHslkJG33_to__to 3000ms linear infinite normal forwards}@keyframes eNhqaHslkJG33_to__to { 0% {transform: translate(101.189995px,-6.005001px)} 73.333333% {transform: translate(101.189995px,-6.005001px)} 86.666667% {transform: translate(101.399995px,24.544999px)} 100% {transform: translate(101.399995px,24.544999px)}} #eNhqaHslkJG34_to {animation: eNhqaHslkJG34_to__to 3000ms linear infinite normal forwards}@keyframes eNhqaHslkJG34_to__to { 0% {transform: translate(111.910000px,-6.005001px)} 73.333333% {transform: translate(111.910000px,-6.005001px)} 86.666667% {transform: translate(112.120000px,24.544999px)} 100% {transform: translate(112.120000px,24.544999px)}} #eNhqaHslkJG35_to {animation: eNhqaHslkJG35_to__to 3000ms linear infinite normal forwards}@keyframes eNhqaHslkJG35_to__to { 0% {transform: translate(85.695005px,64.040004px)} 86.666667% {transform: translate(85.695005px,64.040004px)} 100% {transform: translate(85.695005px,37.810004px)}} #eNhqaHslkJG36_to {animation: eNhqaHslkJG36_to__to 3000ms linear infinite normal forwards}@keyframes eNhqaHslkJG36_to__to { 0% {transform: translate(72.840002px,64.039996px)} 86.666667% {transform: translate(72.840002px,64.039996px)} 100% {transform: translate(72.840002px,37.809996px)}} #eNhqaHslkJG37_to {animation: eNhqaHslkJG37_to__to 3000ms linear infinite normal forwards}@keyframes eNhqaHslkJG37_to__to { 0% {transform: translate(99.520002px,64.039996px)} 86.666667% {transform: translate(99.520002px,64.039996px)} 100% {transform: translate(99.520002px,37.809996px)}} #eNhqaHslkJG38_to {animation: eNhqaHslkJG38_to__to 3000ms linear infinite normal forwards}@keyframes eNhqaHslkJG38_to__to { 0% {transform: translate(110.420000px,64.034999px)} 86.666667% {transform: translate(110.420000px,64.034999px)} 100% {transform: translate(110.420000px,37.804999px)}} #eNhqaHslkJG39_to {animation: eNhqaHslkJG39_to__to 3000ms linear infinite normal forwards}@keyframes eNhqaHslkJG39_to__to { 0% {transform: translate(15.205001px,65.184999px)} 30% {transform: translate(15.205001px,65.184999px)} 43.333333% {transform: translate(15.205001px,47.464999px)} 100% {transform: translate(15.205001px,47.464999px)}} #eNhqaHslkJG40_to {animation: eNhqaHslkJG40_to__to 3000ms linear infinite normal forwards}@keyframes eNhqaHslkJG40_to__to { 0% {transform: translate(52.105002px,60.314998px)} 30% {transform: translate(52.105002px,60.314998px)} 43.333333% {transform: translate(52.105002px,42.594998px)} 100% {transform: translate(52.105002px,42.594998px)}} #eNhqaHslkJG41 {animation: eNhqaHslkJG41_c_o 3000ms linear infinite normal forwards}@keyframes eNhqaHslkJG41_c_o { 0% {opacity: 0} 10% {opacity: 0} 23.333333% {opacity: 1} 100% {opacity: 1}}]]>
  </style>
  <defs>
    <rect id="eNhqaHslkJG2" width="116" height="58" rx="0" ry="0" />
  </defs>
  <g id="eNhqaHslkJG3">
    <g id="eNhqaHslkJG4">
      <g id="eNhqaHslkJG5">
        <g id="eNhqaHslkJG6" clip-path="url(#eNhqaHslkJG10)">
          <path id="eNhqaHslkJG7" d="M51.720000,56.410000C51.720000,56.590000,51.570000,56.740000,51.400000,56.740000" fill="rgb(255,255,255)" stroke="none" stroke-width="1" />
          <path id="eNhqaHslkJG8" d="M51.390000,56.730000L15.970000,56.730000C15.790000,56.730000,15.640000,56.580000,15.640000,56.400000" fill="rgb(255,255,255)" stroke="none" stroke-width="1" />
          <line id="eNhqaHslkJG9" x1="114.810000" y1="26.280000" x2="114.810000" y2="28.360000" fill="rgb(37,43,59)" stroke="none" stroke-width="1" />
          <clipPath id="eNhqaHslkJG10">
            <use id="eNhqaHslkJG11" display="none" width="116" height="58" xlink:href="#eNhqaHslkJG2" fill="rgb(0,0,0)" stroke="none" stroke-width="1" />
          </clipPath>
        </g>
      </g>
      <g id="eNhqaHslkJG12_to" transform="translate(33.564998,-4.750000)">
        <path id="eNhqaHslkJG12" d="M35.510000,7.200000C35.510000,8.740000,34.640000,9.980000,33.560000,9.980000C32.480000,9.980000,31.610000,8.740000,31.610000,7.200000C31.610000,5.660000,33.560000,0.480000,33.560000,0.480000C33.560000,0.480000,35.510000,5.670000,35.510000,7.200000" transform="translate(-33.470000,-15.858479)" fill="rgb(37,43,59)" stroke="none" stroke-width="1" />
      </g>
      <g id="eNhqaHslkJG13_to" transform="translate(34.030000,58.879997)">
        <path id="eNhqaHslkJG13" d="M45.130000,52.670000L21.810000,52.670000C21.640000,52.670000,21.510000,52.530000,21.510000,52.360000C21.510000,51.560000,22.160000,50.910000,22.960000,50.910000L44,50.910000C44.800000,50.910000,45.450000,51.560000,45.450000,52.360000C45.440000,52.540000,45.300000,52.670000,45.130000,52.670000" transform="translate(-33.480000,-51.789997)" fill="rgb(37,43,59)" stroke="none" stroke-width="1" />
      </g>
      <g id="eNhqaHslkJG14_to" transform="translate(34.025001,61.910000)">
        <path id="eNhqaHslkJG14" d="M15.440000,55.590000C15.440000,54.740000,16.130000,54.050000,16.980000,54.050000L49.970000,54.050000C50.820000,54.050000,51.510000,54.740000,51.510000,55.590000" transform="translate(-33.475001,-54.820000)" fill="rgb(37,43,59)" stroke="none" stroke-width="1" />
      </g>
      <path id="eNhqaHslkJG15" d="M54.290000,12.460000C51.730000,10.890000,48.440000,13.080000,45.930000,12.990000C42.630000,12.880000,36.790000,11.060000,33.670000,11.060000C33.640000,11.060000,33.560000,11.060000,33.560000,11.060000C33.560000,11.060000,33.490000,11.060000,33.450000,11.060000C30.330000,11.060000,24.490000,12.890000,21.190000,12.990000C18.680000,13.070000,15.390000,10.890000,12.830000,12.460000C10.970000,13.830000,11.660000,17.750000,8.170000,16.580000C9.100000,17.950000,11.430000,17.560000,12.360000,16.580000C13.060000,15.400000,12.370000,13.250000,14.350000,13.180000C17.060000,13.090000,18.490000,15.280000,20.680000,15.160000C25.040000,14.910000,41.940000,14.910000,46.420000,15.160000C48.610000,15.280000,50.040000,13.090000,52.750000,13.180000C54.740000,13.240000,54.040000,15.400000,54.740000,16.580000C55.670000,17.560000,58,17.950000,58.930000,16.580000C55.460000,17.750000,56.160000,13.830000,54.290000,12.460000" opacity="0" fill="rgb(37,43,59)" stroke="none" stroke-width="1" />
      <path id="eNhqaHslkJG16" d="M11.980000,26.030000L17.280000,15.070000C18.050000,15.470000,17.780000,16.160000,17.400000,16.950000L13.130000,26.030000L11.980000,26.030000Z" opacity="0" fill="rgb(37,43,59)" stroke="none" stroke-width="1" />
      <g id="eNhqaHslkJG17_ts" transform="translate(15.820000,32.565001) scale(0,0)">
        <rect id="eNhqaHslkJG17" width="21.700000" height="11.590000" rx="0" ry="0" transform="translate(-10.850000,-5.795001)" fill="none" stroke="rgb(37,43,59)" stroke-width="0.700000" stroke-miterlimit="10" />
      </g>
      <g id="eNhqaHslkJG18_ts" transform="translate(15.655000,32.564999) scale(0,0)">
        <rect id="eNhqaHslkJG18" width="17.850000" height="8.530000" rx="0" ry="0" transform="translate(-8.925000,-4.264999)" fill="rgb(37,43,59)" stroke="none" stroke-width="1" />
      </g>
      <g id="eNhqaHslkJG19_ts" transform="translate(15.820000,42.064999) scale(0,0)">
        <path id="eNhqaHslkJG19" d="M27.980000,43.850000L3.910000,43.850000L5.580000,40.800000C5.760000,40.480000,6.080000,40.280000,6.440000,40.280000L25.460000,40.280000C25.820000,40.280000,26.140000,40.480000,26.320000,40.800000L27.980000,43.850000Z" transform="translate(-15.945000,-42.064999)" fill="none" stroke="rgb(37,43,59)" stroke-width="0.500000" stroke-miterlimit="10" />
      </g>
      <g id="eNhqaHslkJG20_ts" transform="translate(15.820000,42.052029) scale(0,0)">
        <path id="eNhqaHslkJG20" d="M26.490000,43.110000L5.490000,43.110000L6.590000,41.140000C6.740000,40.950000,7.390000,41,7.700000,41L24.290000,41C24.600000,41,25.210000,41,25.370000,41.190000L26.490000,43.110000Z" transform="translate(-15.990000,-42.052029)" fill="rgb(37,43,59)" stroke="none" stroke-width="1" />
      </g>
      <g id="eNhqaHslkJG21_ts" transform="translate(49.405001,30.550000) scale(0,0)">
        <path id="eNhqaHslkJG21" d="M59.690000,38.720000L40.880000,38.720000C39.910000,38.720000,39.120000,37.930000,39.120000,36.960000L39.120000,22.380000L47.680000,22.380000L49.400000,23.720000L59.680000,23.720000L59.680000,38.720000Z" transform="translate(-49.405001,-30.550000)" fill="none" stroke="rgb(37,43,59)" stroke-width="0.750000" stroke-miterlimit="10" />
      </g>
      <g id="eNhqaHslkJG22_ts" transform="translate(53.340002,32.320000) scale(0,0)">
        <rect id="eNhqaHslkJG22" width="18.520000" height="12.780000" rx="0" ry="0" transform="translate(-9.260002,-6.390000)" fill="none" stroke="rgb(37,43,59)" stroke-width="0.750000" stroke-miterlimit="10" />
      </g>
      <g id="eNhqaHslkJG23">
        <g id="eNhqaHslkJG24_ts" transform="translate(53.179998,27.650000) scale(0,0)">
          <path id="eNhqaHslkJG24" d="M61.460000,27.880000L52.900000,27.880000C52.780000,27.880000,52.670000,27.780000,52.670000,27.650000C52.670000,27.530000,52.770000,27.420000,52.900000,27.420000L61.460000,27.420000C61.580000,27.420000,61.690000,27.520000,61.690000,27.650000C61.680000,27.780000,61.580000,27.880000,61.460000,27.880000Z" transform="translate(-57.179998,-27.650000)" fill="none" stroke="rgb(37,43,59)" stroke-width="0.250000" stroke-miterlimit="10" />
        </g>
        <g id="eNhqaHslkJG25_ts" transform="translate(53.179998,28.760000) scale(0,0)">
          <path id="eNhqaHslkJG25" d="M61.460000,28.990000L52.900000,28.990000C52.780000,28.990000,52.670000,28.890000,52.670000,28.760000C52.670000,28.640000,52.770000,28.530000,52.900000,28.530000L61.460000,28.530000C61.580000,28.530000,61.690000,28.630000,61.690000,28.760000C61.680000,28.890000,61.580000,28.990000,61.460000,28.990000Z" transform="translate(-57.179998,-28.760000)" fill="none" stroke="rgb(37,43,59)" stroke-width="0.250000" stroke-miterlimit="10" />
        </g>
        <g id="eNhqaHslkJG26_ts" transform="translate(45.225002,27.194999) scale(0,0)">
          <rect id="eNhqaHslkJG26" width="0.470000" height="0.470000" rx="0" ry="0" transform="translate(-0.235002,-0.234999)" fill="none" stroke="rgb(37,43,59)" stroke-width="0.250000" stroke-miterlimit="10" />
        </g>
        <g id="eNhqaHslkJG27_ts" transform="translate(46.135002,27.194999) scale(0,0)">
          <rect id="eNhqaHslkJG27" width="0.470000" height="0.470000" rx="0" ry="0" transform="translate(-0.235002,-0.234999)" fill="none" stroke="rgb(37,43,59)" stroke-width="0.250000" stroke-miterlimit="10" />
        </g>
        <g id="eNhqaHslkJG28_ts" transform="translate(47.035000,27.194999) scale(0,0)">
          <rect id="eNhqaHslkJG28" width="0.470000" height="0.470000" rx="0" ry="0" transform="translate(-0.235000,-0.234999)" fill="none" stroke="rgb(37,43,59)" stroke-width="0.250000" stroke-miterlimit="10" />
        </g>
      </g>
      <path id="eNhqaHslkJG29" d="M32.420000,50.150000L34.700000,50.150000C34.700000,50.130000,35.430000,46.670000,35.430000,46.670000L36.870000,34.830000L34.970000,21.800000L34.730000,17.910000C34.730000,17.040000,33.570000,15.770000,33.570000,15.770000C33.570000,15.770000,32.410000,17.040000,32.410000,17.910000L32.160000,21.950000L30.260000,34.830000L31.700000,46.670000C31.690000,46.670000,32.420000,50.120000,32.420000,50.150000" opacity="0" fill="rgb(37,43,59)" stroke="none" stroke-width="1" />
      <g id="eNhqaHslkJG30_to" transform="translate(68.075001,-6.005001)">
        <polygon id="eNhqaHslkJG30" points="65.390000,16.060000 67.580000,16.060000 67.580000,25.460000 70.760000,25.460000 70.760000,27.550000 65.390000,27.550000" transform="translate(-68.075001,-21.804999)" fill="rgb(37,43,59)" stroke="none" stroke-width="1" />
      </g>
      <g id="eNhqaHslkJG31_to" transform="translate(76.375000,-6.005001)">
        <polygon id="eNhqaHslkJG31" points="73.240000,16.060000 79.510000,16.060000 79.510000,18.200000 75.410000,18.200000 75.410000,20.270000 79.510000,20.270000 79.510000,22.380000 75.410000,22.380000 75.410000,25.400000 79.510000,25.400000 79.510000,27.550000 73.240000,27.550000" transform="translate(-76.375000,-21.804999)" fill="rgb(37,43,59)" stroke="none" stroke-width="1" />
      </g>
      <g id="eNhqaHslkJG32_to" transform="translate(87.809998,-6.034999)">
        <path id="eNhqaHslkJG32" d="M92.960000,17.930000L91.420000,19.450000C90.440000,18.420000,89.310000,17.900000,88.010000,17.900000C86.880000,17.900000,85.930000,18.280000,85.170000,19.020000C84.410000,19.760000,84.020000,20.680000,84.020000,21.750000C84.020000,22.860000,84.420000,23.800000,85.210000,24.570000C86,25.340000,86.980000,25.730000,88.140000,25.730000C88.890000,25.730000,89.530000,25.570000,90.050000,25.250000C90.570000,24.930000,90.990000,24.430000,91.310000,23.760000L87.980000,23.760000L87.980000,21.700000L93.760000,21.700000L93.780000,22.180000C93.780000,23.180000,93.520000,24.140000,93,25.040000C92.480000,25.940000,91.810000,26.630000,90.980000,27.100000C90.150000,27.570000,89.180000,27.810000,88.070000,27.810000C86.880000,27.810000,85.810000,27.550000,84.880000,27.030000C83.950000,26.510000,83.200000,25.770000,82.660000,24.820000C82.120000,23.870000,81.840000,22.830000,81.840000,21.720000C81.840000,20.200000,82.340000,18.880000,83.350000,17.750000C84.540000,16.410000,86.100000,15.740000,88.010000,15.740000C89.010000,15.740000,89.950000,15.930000,90.820000,16.300000C91.540000,16.630000,92.250000,17.170000,92.960000,17.930000" transform="translate(-87.809998,-21.775001)" fill="rgb(37,43,59)" stroke="none" stroke-width="1" />
      </g>
      <g id="eNhqaHslkJG33_to" transform="translate(101.189995,-6.005001)">
        <path id="eNhqaHslkJG33" d="M100.090000,16.060000L102.310000,16.060000L106.730000,27.550000L104.450000,27.550000L103.550000,25.180000L98.860000,25.180000L97.920000,27.550000L95.650000,27.550000L100.090000,16.060000ZM101.210000,19.100000L99.670000,23.050000L102.750000,23.050000L101.210000,19.100000Z" transform="translate(-101.189995,-21.804999)" fill="rgb(37,43,59)" stroke="none" stroke-width="1" />
      </g>
      <g id="eNhqaHslkJG34_to" transform="translate(111.910000,-6.005001)">
        <polyline id="eNhqaHslkJG34" points="114.600000,27.550000 109.220000,27.550000 109.220000,16.060000 111.410000,16.060000 111.410000,25.460000 114.600000,25.460000" transform="translate(-111.910000,-21.804999)" fill="rgb(37,43,59)" stroke="none" stroke-width="1" />
      </g>
      <g id="eNhqaHslkJG35_to" transform="translate(85.695005,64.040004)">
        <path id="eNhqaHslkJG35" d="M84.330000,34.970000C85.960000,34.970000,87.360000,35.560000,88.520000,36.740000C89.690000,37.920000,90.280000,39.350000,90.280000,41.050000C90.280000,42.730000,89.700000,44.150000,88.550000,45.310000C87.400000,46.470000,86,47.050000,84.350000,47.050000C82.630000,47.050000,81.190000,46.450000,80.050000,45.260000C78.910000,44.070000,78.340000,42.650000,78.340000,41.010000C78.340000,39.910000,78.610000,38.900000,79.140000,37.980000C79.670000,37.060000,80.400000,36.330000,81.330000,35.790000C82.260000,35.240000,83.260000,34.970000,84.330000,34.970000M84.310000,37.110000C83.250000,37.110000,82.350000,37.480000,81.630000,38.220000C80.910000,38.960000,80.540000,39.900000,80.540000,41.040000C80.540000,42.310000,81,43.320000,81.910000,44.050000C82.620000,44.630000,83.430000,44.920000,84.350000,44.920000C85.390000,44.920000,86.270000,44.540000,87,43.800000C87.730000,43.050000,88.100000,42.130000,88.100000,41.030000C88.100000,39.940000,87.730000,39.010000,87,38.250000C86.260000,37.490000,85.370000,37.110000,84.310000,37.110000" transform="translate(-84.310005,-41.010004)" fill="rgb(37,43,59)" stroke="none" stroke-width="1" />
      </g>
      <g id="eNhqaHslkJG36_to" transform="translate(72.840002,64.039996)">
        <path id="eNhqaHslkJG36" d="M66.910000,35.260000L69.500000,35.260000C71.170000,35.260000,72.410000,35.470000,73.220000,35.880000C74.030000,36.290000,74.700000,36.970000,75.220000,37.900000C75.750000,38.830000,76.010000,39.920000,76.010000,41.170000C76.010000,42.060000,75.860000,42.870000,75.570000,43.610000C75.280000,44.350000,74.870000,44.970000,74.350000,45.460000C73.830000,45.950000,73.270000,46.290000,72.670000,46.480000C72.070000,46.670000,71.020000,46.760000,69.530000,46.760000L66.900000,46.760000L66.900000,35.260000ZM69.090000,37.370000L69.090000,44.620000L70.110000,44.620000C71.110000,44.620000,71.830000,44.510000,72.280000,44.280000C72.730000,44.050000,73.100000,43.660000,73.390000,43.120000C73.680000,42.580000,73.820000,41.910000,73.820000,41.120000C73.820000,39.900000,73.480000,38.950000,72.800000,38.280000C72.190000,37.680000,71.200000,37.370000,69.840000,37.370000L69.090000,37.370000Z" transform="translate(-71.455002,-41.009996)" fill="rgb(37,43,59)" stroke="none" stroke-width="1" />
      </g>
      <g id="eNhqaHslkJG37_to" transform="translate(99.520002,64.039996)">
        <path id="eNhqaHslkJG37" d="M103.710000,37.280000L102.180000,38.740000C101.140000,37.640000,99.970000,37.090000,98.670000,37.090000C97.570000,37.090000,96.650000,37.470000,95.900000,38.220000C95.150000,38.970000,94.770000,39.900000,94.770000,41C94.770000,41.770000,94.940000,42.450000,95.270000,43.040000C95.600000,43.640000,96.070000,44.100000,96.680000,44.440000C97.290000,44.780000,97.970000,44.950000,98.710000,44.950000C99.350000,44.950000,99.930000,44.830000,100.450000,44.600000C100.980000,44.360000,101.550000,43.930000,102.180000,43.300000L103.660000,44.850000C102.810000,45.680000,102.010000,46.250000,101.250000,46.570000C100.490000,46.890000,99.630000,47.050000,98.660000,47.050000C96.870000,47.050000,95.410000,46.480000,94.270000,45.350000C93.130000,44.220000,92.560000,42.770000,92.560000,40.990000C92.560000,39.840000,92.820000,38.830000,93.340000,37.930000C93.860000,37.040000,94.600000,36.320000,95.570000,35.780000C96.540000,35.240000,97.580000,34.970000,98.690000,34.970000C99.640000,34.970000,100.550000,35.170000,101.430000,35.570000C102.310000,35.970000,103.070000,36.540000,103.710000,37.280000" transform="translate(-98.135002,-41.009996)" fill="rgb(37,43,59)" stroke="none" stroke-width="1" />
      </g>
      <g id="eNhqaHslkJG38_to" transform="translate(110.420000,64.034999)">
        <path id="eNhqaHslkJG38" d="M112.450000,36.820000L110.830000,38.250000C110.260000,37.460000,109.680000,37.060000,109.090000,37.060000C108.800000,37.060000,108.570000,37.140000,108.380000,37.290000C108.200000,37.440000,108.110000,37.620000,108.110000,37.810000C108.110000,38,108.180000,38.190000,108.300000,38.360000C108.480000,38.590000,109.010000,39.080000,109.910000,39.840000C110.740000,40.540000,111.250000,40.980000,111.430000,41.160000C111.870000,41.610000,112.190000,42.040000,112.370000,42.440000C112.550000,42.850000,112.650000,43.300000,112.650000,43.780000C112.650000,44.720000,112.320000,45.500000,111.670000,46.120000C111.020000,46.730000,110.170000,47.040000,109.120000,47.040000C108.300000,47.040000,107.590000,46.840000,106.980000,46.440000C106.370000,46.040000,105.850000,45.410000,105.420000,44.550000L107.260000,43.440000C107.810000,44.460000,108.450000,44.960000,109.170000,44.960000C109.550000,44.960000,109.860000,44.850000,110.120000,44.630000C110.380000,44.410000,110.500000,44.160000,110.500000,43.870000C110.500000,43.610000,110.400000,43.350000,110.210000,43.090000C110.020000,42.830000,109.590000,42.430000,108.930000,41.900000C107.680000,40.880000,106.870000,40.090000,106.500000,39.540000C106.140000,38.980000,105.950000,38.430000,105.950000,37.880000C105.950000,37.080000,106.250000,36.400000,106.860000,35.830000C107.470000,35.260000,108.220000,34.970000,109.110000,34.970000C109.680000,34.970000,110.230000,35.100000,110.750000,35.370000C111.290000,35.630000,111.850000,36.120000,112.450000,36.820000" transform="translate(-109.035000,-41.004999)" fill="rgb(37,43,59)" stroke="none" stroke-width="1" />
      </g>
      <g id="eNhqaHslkJG39_to" transform="translate(15.205001,65.184999)">
        <path id="eNhqaHslkJG39" d="M15.010000,49.440000C22.720000,49.440000,28.970000,47.330000,28.970000,44.730000L1.050000,44.730000C1.050000,47.340000,7.300000,49.440000,15.010000,49.440000" transform="translate(-15.010001,-47.084999)" fill="rgb(37,43,59)" stroke="none" stroke-width="1" />
      </g>
      <g id="eNhqaHslkJG40_to" transform="translate(52.105002,60.314998)">
        <path id="eNhqaHslkJG40" d="M51.910000,44.530000C59.500000,44.530000,65.660000,42.460000,65.660000,39.900000L38.160000,39.900000C38.160000,42.460000,44.320000,44.530000,51.910000,44.530000" transform="translate(-51.910002,-42.214998)" fill="rgb(37,43,59)" stroke="none" stroke-width="1" />
      </g>
      <path id="eNhqaHslkJG41" d="M56.240000,22.820000L51.830000,13.880000C51.150000,14.220000,51.390000,14.810000,51.720000,15.500000L55.300000,22.820000L56.240000,22.820000Z" opacity="0" fill="rgb(37,43,59)" stroke="none" stroke-width="1" />
    </g>
  </g>
</svg>