<?xml version="1.0" encoding="utf-8"?>
<!-- Generator: Adobe Illustrator 25.2.3, SVG Export Plug-In . SVG Version: 6.00 Build 0)  -->
<svg version="1.1" id="Слой_1" xmlns="http://www.w3.org/2000/svg" xmlns:xlink="http://www.w3.org/1999/xlink" x="0px" y="0px"
	 viewBox="0 0 116 58" style="enable-background:new 0 0 116 58;" xml:space="preserve">
<style type="text/css">
	.st0{display:none;}
	.st1{display:inline;fill:#252B3B;}
	.st2{clip-path:url(#SVGID_3_);fill:#252B3B;}
	.st3{clip-path:url(#SVGID_5_);fill:#252B3B;}
	.st4{clip-path:url(#SVGID_7_);fill:#252B3B;}
	.st5{clip-path:url(#SVGID_9_);fill:#252B3B;}
	.st6{clip-path:url(#SVGID_11_);fill:#252B3B;}
	.st7{clip-path:url(#SVGID_13_);fill:none;stroke:#252B3B;stroke-width:0.7;stroke-miterlimit:10;}
	.st8{clip-path:url(#SVGID_15_);fill:#252B3B;}
	.st9{clip-path:url(#SVGID_17_);fill:none;stroke:#252B3B;stroke-width:0.5;stroke-miterlimit:10;}
	.st10{clip-path:url(#SVGID_19_);fill:#252B3B;}
	.st11{clip-path:url(#SVGID_21_);fill:none;stroke:#252B3B;stroke-width:0.75;stroke-miterlimit:10;}
	.st12{clip-path:url(#SVGID_23_);fill:none;stroke:#252B3B;stroke-width:0.75;stroke-miterlimit:10;}
	.st13{clip-path:url(#SVGID_25_);}
	.st14{fill:none;stroke:#252B3B;stroke-width:0.25;stroke-miterlimit:10;}
	.st15{clip-path:url(#SVGID_27_);fill:#252B3B;}
	.st16{clip-path:url(#SVGID_29_);fill:#252B3B;}
	.st17{clip-path:url(#SVGID_31_);fill:#252B3B;}
	.st18{clip-path:url(#SVGID_33_);fill:#252B3B;}
	.st19{clip-path:url(#SVGID_35_);fill:#252B3B;}
	.st20{clip-path:url(#SVGID_37_);fill:#252B3B;}
	.st21{clip-path:url(#SVGID_39_);fill:#252B3B;}
	.st22{clip-path:url(#SVGID_41_);fill:#252B3B;}
	.st23{clip-path:url(#SVGID_43_);fill:#252B3B;}
	.st24{clip-path:url(#SVGID_45_);fill:#252B3B;}
	.st25{clip-path:url(#SVGID_47_);fill:#252B3B;}
	.st26{clip-path:url(#SVGID_49_);fill:#252B3B;}
	.st27{display:none;clip-path:url(#SVGID_51_);fill:#252B3B;}
	.st28{clip-path:url(#SVGID_53_);fill:#252B3B;}
</style>
<g id="Слой_2_1_" className="st0">
</g>
<g>
	<g className="st0">
		<rect id="SVGID_1_" x="0.1" y="0.1" className="st1" width="116" height="58"/>
	</g>
	<g>
		<defs>
			<rect id="SVGID_2_" x="0.1" y="0.1" width="116" height="58"/>
		</defs>
		<clipPath id="SVGID_3_">
			<use xlink:href="#SVGID_2_"  style="overflow:visible;"/>
		</clipPath>
		<path className="st2" d="M35.8,8.1c0,1.5-0.9,2.8-2,2.8s-2-1.2-2-2.8s2-6.7,2-6.7S35.8,6.5,35.8,8.1"/>
	</g>
	<g>
		<defs>
			<rect id="SVGID_4_" x="0.1" y="0.1" width="116" height="58"/>
		</defs>
		<clipPath id="SVGID_5_">
			<use xlink:href="#SVGID_4_"  style="overflow:visible;"/>
		</clipPath>
		<path className="st3" d="M45.4,53.5H22.1c-0.2,0-0.3-0.1-0.3-0.3c0-0.8,0.6-1.5,1.5-1.5h21c0.8,0,1.5,0.7,1.5,1.5
			C45.7,53.4,45.6,53.5,45.4,53.5"/>
	</g>
	<g>
		<defs>
			<rect id="SVGID_6_" x="0.1" y="0.1" width="116" height="58"/>
		</defs>
		<clipPath id="SVGID_7_">
			<use xlink:href="#SVGID_6_"  style="overflow:visible;"/>
		</clipPath>
		<path className="st4" d="M51.5,56.8H16.1c-0.2,0-0.3-0.2-0.3-0.3c0-0.8,0.7-1.5,1.5-1.5h33c0.8,0,1.5,0.7,1.5,1.5
			C51.8,56.6,51.7,56.8,51.5,56.8"/>
	</g>
	<g>
		<defs>
			<rect id="SVGID_8_" x="0.1" y="0.1" width="116" height="58"/>
		</defs>
		<clipPath id="SVGID_9_">
			<use xlink:href="#SVGID_8_"  style="overflow:visible;"/>
		</clipPath>
		<path className="st5" d="M54.6,13.3c-2.6-1.6-5.8,0.6-8.4,0.5c-3.3-0.1-9.1-1.9-12.3-1.9c0,0-0.1,0-0.1,0s-0.1,0-0.1,0
			c-3.1,0-9,1.8-12.3,1.9c-2.5,0.1-5.8-2.1-8.4-0.5c-1.9,1.4-1.2,5.3-4.7,4.1c0.9,1.4,3.3,1,4.2,0c0.7-1.2,0-3.3,2-3.4
			c2.7-0.1,4.1,2.1,6.3,2c4.4-0.2,21.3-0.2,25.7,0c2.2,0.1,3.6-2.1,6.3-2c2,0.1,1.3,2.2,2,3.4c0.9,1,3.3,1.4,4.2,0
			C55.8,18.6,56.4,14.7,54.6,13.3"/>
	</g>
	<g>
		<defs>
			<rect id="SVGID_10_" x="0.1" y="0.1" width="116" height="58"/>
		</defs>
		<clipPath id="SVGID_11_">
			<use xlink:href="#SVGID_10_"  style="overflow:visible;"/>
		</clipPath>
		<path className="st6" d="M12.3,26.9l5.3-11c0.8,0.4,0.5,1.1,0.1,1.9l-4.3,9.1H12.3z"/>
	</g>
	<g>
		<defs>
			<rect id="SVGID_12_" x="0.1" y="0.1" width="116" height="58"/>
		</defs>
		<clipPath id="SVGID_13_">
			<use xlink:href="#SVGID_12_"  style="overflow:visible;"/>
		</clipPath>
		<rect x="5.3" y="27.6" className="st7" width="21.7" height="11.6"/>
	</g>
	<g>
		<defs>
			<rect id="SVGID_14_" x="0.1" y="0.1" width="116" height="58"/>
		</defs>
		<clipPath id="SVGID_15_">
			<use xlink:href="#SVGID_14_"  style="overflow:visible;"/>
		</clipPath>
		<rect x="7.2" y="29.2" className="st8" width="17.9" height="8.5"/>
	</g>
	<g>
		<defs>
			<rect id="SVGID_16_" x="0.1" y="0.1" width="116" height="58"/>
		</defs>
		<clipPath id="SVGID_17_">
			<use xlink:href="#SVGID_16_"  style="overflow:visible;"/>
		</clipPath>
		<path className="st9" d="M28.3,44.7H4.2l1.7-3c0.2-0.3,0.5-0.5,0.9-0.5h19c0.4,0,0.7,0.2,0.9,0.5L28.3,44.7z"/>
	</g>
	<g>
		<defs>
			<rect id="SVGID_18_" x="0.1" y="0.1" width="116" height="58"/>
		</defs>
		<clipPath id="SVGID_19_">
			<use xlink:href="#SVGID_18_"  style="overflow:visible;"/>
		</clipPath>
		<path className="st10" d="M26.8,44h-21l1.1-2C7,41.8,7.7,41.9,8,41.9h16.6c0.3,0,0.9,0,1.1,0.2L26.8,44z"/>
	</g>
	<g>
		<defs>
			<rect id="SVGID_20_" x="0.1" y="0.1" width="116" height="58"/>
		</defs>
		<clipPath id="SVGID_21_">
			<use xlink:href="#SVGID_20_"  style="overflow:visible;"/>
		</clipPath>
		<path className="st11" d="M60,39.6H41.2c-1,0-1.8-0.8-1.8-1.8V23.2H48l1.7,1.3H60C60,24.6,60,39.6,60,39.6z"/>
	</g>
	<g>
		<defs>
			<rect id="SVGID_22_" x="0.1" y="0.1" width="116" height="58"/>
		</defs>
		<clipPath id="SVGID_23_">
			<use xlink:href="#SVGID_22_"  style="overflow:visible;"/>
		</clipPath>
		<rect x="43.4" y="26.8" className="st12" width="18.5" height="12.8"/>
	</g>
	<g>
		<defs>
			<rect id="SVGID_24_" x="0.1" y="0.1" width="116" height="58"/>
		</defs>
		<clipPath id="SVGID_25_">
			<use xlink:href="#SVGID_24_"  style="overflow:visible;"/>
		</clipPath>
		<g className="st13">
			<path className="st14" d="M58.7,28.7h-8.6c-0.1,0-0.2-0.1-0.2-0.2c0-0.1,0.1-0.2,0.2-0.2h8.6c0.1,0,0.2,0.1,0.2,0.2
				S58.9,28.7,58.7,28.7z"/>
			<path className="st14" d="M58.7,29.9h-8.6c-0.1,0-0.2-0.1-0.2-0.2c0-0.1,0.1-0.2,0.2-0.2h8.6c0.1,0,0.2,0.1,0.2,0.2
				C59,29.8,58.9,29.9,58.7,29.9z"/>
			<path className="st14" d="M56.1,38.5H44.5c-0.1,0-0.2-0.1-0.2-0.2c0-0.1,0.1-0.2,0.2-0.2h11.6c0.1,0,0.2,0.1,0.2,0.2
				S56.2,38.5,56.1,38.5z"/>
			<rect x="44.3" y="27.8" className="st14" width="0.5" height="0.5"/>
			<rect x="45.2" y="27.8" className="st14" width="0.5" height="0.5"/>
			<rect x="46.1" y="27.8" className="st14" width="0.5" height="0.5"/>
		</g>
	</g>
	<g>
		<defs>
			<rect id="SVGID_26_" x="0.1" y="0.1" width="116" height="58"/>
		</defs>
		<clipPath id="SVGID_27_">
			<use xlink:href="#SVGID_26_"  style="overflow:visible;"/>
		</clipPath>
		<path className="st15" d="M32.7,51H35c0,0,0.7-3.5,0.7-3.5l1.4-11.8l-1.9-13L35,18.8c0-0.9-1.2-2.1-1.2-2.1s-1.2,1.3-1.2,2.1l-0.2,4
			l-1.9,12.9L32,47.5C32,47.5,32.7,51,32.7,51"/>
	</g>
	<g>
		<defs>
			<rect id="SVGID_28_" x="0.1" y="0.1" width="116" height="58"/>
		</defs>
		<clipPath id="SVGID_29_">
			<use xlink:href="#SVGID_28_"  style="overflow:visible;"/>
		</clipPath>
		<polygon className="st16" points="65.7,16.9 67.9,16.9 67.9,26.3 71.1,26.3 71.1,28.4 65.7,28.4 		"/>
	</g>
	<g>
		<defs>
			<rect id="SVGID_30_" x="0.1" y="0.1" width="116" height="58"/>
		</defs>
		<clipPath id="SVGID_31_">
			<use xlink:href="#SVGID_30_"  style="overflow:visible;"/>
		</clipPath>
		<polygon className="st17" points="73.5,16.9 79.8,16.9 79.8,19.1 75.7,19.1 75.7,21.1 79.8,21.1 79.8,23.2 75.7,23.2 75.7,26.3 
			79.8,26.3 79.8,28.4 73.5,28.4 		"/>
	</g>
	<g>
		<defs>
			<rect id="SVGID_32_" x="0.1" y="0.1" width="116" height="58"/>
		</defs>
		<clipPath id="SVGID_33_">
			<use xlink:href="#SVGID_32_"  style="overflow:visible;"/>
		</clipPath>
		<path className="st18" d="M93.3,18.8l-1.5,1.5c-1-1-2.1-1.5-3.4-1.5c-1.1,0-2.1,0.4-2.8,1.1s-1.2,1.7-1.2,2.7c0,1.1,0.4,2,1.2,2.8
			s1.8,1.2,2.9,1.2c0.8,0,1.4-0.2,1.9-0.5c0.5-0.3,0.9-0.8,1.3-1.5h-3.3v-2.1h5.8l0,0.5c0,1-0.3,2-0.8,2.9c-0.5,0.9-1.2,1.6-2,2.1
			c-0.8,0.5-1.8,0.7-2.9,0.7c-1.2,0-2.3-0.3-3.2-0.8s-1.7-1.3-2.2-2.2s-0.8-2-0.8-3.1c0-1.5,0.5-2.8,1.5-4c1.2-1.3,2.8-2,4.7-2
			c1,0,1.9,0.2,2.8,0.6C91.8,17.5,92.5,18,93.3,18.8"/>
	</g>
	<g>
		<defs>
			<rect id="SVGID_34_" x="0.1" y="0.1" width="116" height="58"/>
		</defs>
		<clipPath id="SVGID_35_">
			<use xlink:href="#SVGID_34_"  style="overflow:visible;"/>
		</clipPath>
		<path className="st19" d="M100.4,16.9h2.2l4.4,11.5h-2.3l-0.9-2.4h-4.7l-0.9,2.4h-2.3L100.4,16.9z M101.5,20l-1.5,4h3.1L101.5,20z"/>
	</g>
	<g>
		<defs>
			<rect id="SVGID_36_" x="0.1" y="0.1" width="116" height="58"/>
		</defs>
		<clipPath id="SVGID_37_">
			<use xlink:href="#SVGID_36_"  style="overflow:visible;"/>
		</clipPath>
		<polygon className="st20" points="109.5,16.9 111.7,16.9 111.7,26.3 114.9,26.3 114.9,28.4 109.5,28.4 		"/>
	</g>
	<g>
		<defs>
			<rect id="SVGID_38_" x="0.1" y="0.1" width="116" height="58"/>
		</defs>
		<clipPath id="SVGID_39_">
			<use xlink:href="#SVGID_38_"  style="overflow:visible;"/>
		</clipPath>
		<path className="st21" d="M67.2,36.1h2.6c1.7,0,2.9,0.2,3.7,0.6s1.5,1.1,2,2c0.5,0.9,0.8,2,0.8,3.3c0,0.9-0.2,1.7-0.4,2.4
			c-0.3,0.7-0.7,1.4-1.2,1.8c-0.5,0.5-1.1,0.8-1.7,1s-1.7,0.3-3.1,0.3h-2.6L67.2,36.1L67.2,36.1z M69.4,38.2v7.2h1
			c1,0,1.7-0.1,2.2-0.3s0.8-0.6,1.1-1.2c0.3-0.5,0.4-1.2,0.4-2c0-1.2-0.3-2.2-1-2.8c-0.6-0.6-1.6-0.9-3-0.9H69.4z"/>
	</g>
	<g>
		<defs>
			<rect id="SVGID_40_" x="0.1" y="0.1" width="116" height="58"/>
		</defs>
		<clipPath id="SVGID_41_">
			<use xlink:href="#SVGID_40_"  style="overflow:visible;"/>
		</clipPath>
		<path className="st22" d="M84.6,35.8c1.6,0,3,0.6,4.2,1.8c1.2,1.2,1.8,2.6,1.8,4.3c0,1.7-0.6,3.1-1.7,4.3c-1.2,1.2-2.6,1.7-4.2,1.7
			c-1.7,0-3.2-0.6-4.3-1.8c-1.1-1.2-1.7-2.6-1.7-4.2c0-1.1,0.3-2.1,0.8-3c0.5-0.9,1.3-1.7,2.2-2.2S83.6,35.8,84.6,35.8 M84.6,38
			c-1.1,0-2,0.4-2.7,1.1s-1.1,1.7-1.1,2.8c0,1.3,0.5,2.3,1.4,3c0.7,0.6,1.5,0.9,2.4,0.9c1,0,1.9-0.4,2.7-1.1
			c0.7-0.8,1.1-1.7,1.1-2.8c0-1.1-0.4-2-1.1-2.8C86.6,38.4,85.7,38,84.6,38"/>
	</g>
	<g>
		<defs>
			<rect id="SVGID_42_" x="0.1" y="0.1" width="116" height="58"/>
		</defs>
		<clipPath id="SVGID_43_">
			<use xlink:href="#SVGID_42_"  style="overflow:visible;"/>
		</clipPath>
		<path className="st23" d="M104,38.1l-1.5,1.5c-1-1.1-2.2-1.7-3.5-1.7c-1.1,0-2,0.4-2.8,1.1s-1.1,1.7-1.1,2.8c0,0.8,0.2,1.5,0.5,2
			c0.3,0.6,0.8,1.1,1.4,1.4s1.3,0.5,2,0.5c0.6,0,1.2-0.1,1.7-0.3c0.5-0.2,1.1-0.7,1.7-1.3l1.5,1.5c-0.8,0.8-1.7,1.4-2.4,1.7
			s-1.6,0.5-2.6,0.5c-1.8,0-3.2-0.6-4.4-1.7s-1.7-2.6-1.7-4.4c0-1.2,0.3-2.2,0.8-3.1c0.5-0.9,1.3-1.6,2.2-2.2s2-0.8,3.1-0.8
			c0.9,0,1.9,0.2,2.7,0.6S103.4,37.4,104,38.1"/>
	</g>
	<g>
		<defs>
			<rect id="SVGID_44_" x="0.1" y="0.1" width="116" height="58"/>
		</defs>
		<clipPath id="SVGID_45_">
			<use xlink:href="#SVGID_44_"  style="overflow:visible;"/>
		</clipPath>
		<path className="st24" d="M112.7,37.7l-1.6,1.4c-0.6-0.8-1.2-1.2-1.7-1.2c-0.3,0-0.5,0.1-0.7,0.2c-0.2,0.2-0.3,0.3-0.3,0.5
			s0.1,0.4,0.2,0.5c0.2,0.2,0.7,0.7,1.6,1.5c0.8,0.7,1.3,1.1,1.5,1.3c0.4,0.5,0.8,0.9,0.9,1.3c0.2,0.4,0.3,0.9,0.3,1.3
			c0,0.9-0.3,1.7-1,2.3c-0.7,0.6-1.5,0.9-2.6,0.9c-0.8,0-1.5-0.2-2.1-0.6c-0.6-0.4-1.1-1-1.6-1.9l1.8-1.1c0.6,1,1.2,1.5,1.9,1.5
			c0.4,0,0.7-0.1,0.9-0.3c0.3-0.2,0.4-0.5,0.4-0.8c0-0.3-0.1-0.5-0.3-0.8s-0.6-0.7-1.3-1.2c-1.2-1-2.1-1.8-2.4-2.4
			c-0.4-0.5-0.6-1.1-0.6-1.7c0-0.8,0.3-1.5,0.9-2s1.4-0.9,2.2-0.9c0.6,0,1.1,0.1,1.6,0.4C111.6,36.5,112.1,37,112.7,37.7"/>
	</g>
	<g>
		<defs>
			<rect id="SVGID_46_" x="0.1" y="0.1" width="116" height="58"/>
		</defs>
		<clipPath id="SVGID_47_">
			<use xlink:href="#SVGID_46_"  style="overflow:visible;"/>
		</clipPath>
		<path className="st25" d="M15.3,50.3c7.7,0,14-2.1,14-4.7H1.3C1.3,48.2,7.6,50.3,15.3,50.3"/>
	</g>
	<g>
		<defs>
			<rect id="SVGID_48_" x="0.1" y="0.1" width="116" height="58"/>
		</defs>
		<clipPath id="SVGID_49_">
			<use xlink:href="#SVGID_48_"  style="overflow:visible;"/>
		</clipPath>
		<path className="st26" d="M52.2,45.4c7.6,0,13.7-2.1,13.7-4.6H38.5C38.5,43.3,44.6,45.4,52.2,45.4"/>
	</g>
	<g>
		<defs>
			<rect id="SVGID_50_" x="0.1" y="0.1" width="116" height="58"/>
		</defs>
		<clipPath id="SVGID_51_">
			<use xlink:href="#SVGID_50_"  style="overflow:visible;"/>
		</clipPath>
		<polygon className="st27" points="6,40 2.6,47 4.6,45.6 7.2,39.9 		"/>
	</g>
	<g>
		<defs>
			<rect id="SVGID_52_" x="0.1" y="0.1" width="116" height="58"/>
		</defs>
		<clipPath id="SVGID_53_">
			<use xlink:href="#SVGID_52_"  style="overflow:visible;"/>
		</clipPath>
		<path className="st28" d="M56.5,23.7l-4.4-8.9c-0.7,0.3-0.4,0.9-0.1,1.6l3.6,7.3H56.5z"/>
	</g>
	<g>
		<defs>
			<rect id="SVGID_54_" x="0.1" y="0.1" width="116" height="58"/>
		</defs>
		<clipPath id="SVGID_55_">
			<use xlink:href="#SVGID_54_"  style="overflow:visible;"/>
		</clipPath>
	</g>
</g>
</svg>
