<?xml version="1.0" encoding="utf-8"?>
<!-- Generator: Adobe Illustrator 25.2.3, SVG Export Plug-In . SVG Version: 6.00 Build 0)  -->
<svg version="1.1" xmlns="http://www.w3.org/2000/svg" xmlns:xlink="http://www.w3.org/1999/xlink" x="0px" y="0px"
	 viewBox="0 0 116 58" style="enable-background:new 0 0 116 58;" xml:space="preserve">
<style type="text/css">
	.st0{display:none;}
	.st1{clip-path:url(#SVGID_2_);fill:#FFFFFF;}
	.st2{fill:#FFFFFF;}
	.st3{fill:none;stroke:#FFFFFF;stroke-width:0.7;stroke-miterlimit:10;}
	.st4{fill:none;stroke:#FFFFFF;stroke-width:0.5;stroke-miterlimit:10;}
	.st5{fill:none;stroke:#FFFFFF;stroke-width:0.75;stroke-miterlimit:10;}
	.st6{fill:#FFFFFF;stroke:#FFFFFF;stroke-width:0.25;stroke-miterlimit:10;}
</style>
<g id="Слой_2" className="st0">
</g>
<g id="Слой_1">
	<g>
		<g>
			<defs>
				<rect id="SVGID_1_" x="0" width="116" height="58"/>
			</defs>
			<clipPath id="SVGID_2_">
				<use xlink:href="#SVGID_1_"  style="display:none;overflow:visible;"/>
			</clipPath>
			<path className="st1" d="M51.72,56.41c0,0.18-0.15,0.33-0.32,0.33"/>
			<path className="st1" d="M51.39,56.73H15.97c-0.18,0-0.33-0.15-0.33-0.33"/>
			<line className="st1" x1="114.81" y1="26.28" x2="114.81" y2="28.36"/>
		</g>
		<path className="st2" d="M35.51,7.2c0,1.54-0.87,2.78-1.95,2.78c-1.08,0-1.95-1.24-1.95-2.78c0-1.54,1.95-6.72,1.95-6.72
			S35.51,5.67,35.51,7.2"/>
		<path className="st2" d="M45.13,52.67H21.81c-0.17,0-0.3-0.14-0.3-0.31c0-0.8,0.65-1.45,1.45-1.45h21.04c0.8,0,1.45,0.65,1.45,1.45
			C45.44,52.54,45.3,52.67,45.13,52.67"/>
		<path className="st2" d="M15.44,55.59c0-0.85,0.69-1.54,1.54-1.54h32.99c0.85,0,1.54,0.69,1.54,1.54"/>
		<path className="st2" d="M54.29,12.46c-2.56-1.57-5.85,0.62-8.36,0.53c-3.3-0.11-9.14-1.93-12.26-1.93c-0.03,0-0.11,0-0.11,0
			s-0.07,0-0.11,0c-3.12,0-8.96,1.83-12.26,1.93c-2.51,0.08-5.8-2.1-8.36-0.53c-1.86,1.37-1.17,5.29-4.66,4.12
			c0.93,1.37,3.26,0.98,4.19,0c0.7-1.18,0.01-3.33,1.99-3.4c2.71-0.09,4.14,2.1,6.33,1.98c4.36-0.25,21.26-0.25,25.74,0
			c2.19,0.12,3.62-2.07,6.33-1.98c1.99,0.06,1.29,2.22,1.99,3.4c0.93,0.98,3.26,1.37,4.19,0C55.46,17.75,56.16,13.83,54.29,12.46"/>
		<path className="st2" d="M11.98,26.03l5.3-10.96c0.77,0.4,0.5,1.09,0.12,1.88l-4.27,9.08H11.98z"/>
		<rect x="4.97" y="26.77" className="st3" width="21.7" height="11.59"/>
		<rect x="6.9" y="28.3" className="st2" width="17.85" height="8.53"/>
		<path className="st4" d="M27.98,43.85H3.91l1.67-3.05c0.18-0.32,0.5-0.52,0.86-0.52h19.02c0.36,0,0.68,0.2,0.86,0.52L27.98,43.85z"/>
		<path className="st2" d="M26.49,43.11h-21l1.1-1.97C6.74,40.95,7.39,41,7.7,41h16.59c0.31,0,0.92,0,1.08,0.19L26.49,43.11z"/>
		<path className="st5" d="M59.69,38.72H40.88c-0.97,0-1.76-0.79-1.76-1.76V22.38h8.56l1.72,1.34h10.28V38.72z"/>
		<rect x="44.08" y="25.93" className="st5" width="18.52" height="12.78"/>
		<g>
			<path className="st6" d="M61.46,27.88h-8.56c-0.12,0-0.23-0.1-0.23-0.23c0-0.12,0.1-0.23,0.23-0.23h8.56c0.12,0,0.23,0.1,0.23,0.23
				C61.68,27.78,61.58,27.88,61.46,27.88z"/>
			<path className="st6" d="M61.46,28.99h-8.56c-0.12,0-0.23-0.1-0.23-0.23c0-0.12,0.1-0.23,0.23-0.23h8.56c0.12,0,0.23,0.1,0.23,0.23
				C61.68,28.89,61.58,28.99,61.46,28.99z"/>
			<path className="st6" d="M61.26,37.68H45.28c-0.12,0-0.23-0.1-0.23-0.23c0-0.12,0.1-0.23,0.23-0.23h15.98c0.12,0,0.23,0.1,0.23,0.23
				C61.49,37.58,61.39,37.68,61.26,37.68z"/>
			<rect x="44.99" y="26.96" className="st6" width="0.47" height="0.47"/>
			<rect x="45.9" y="26.96" className="st6" width="0.47" height="0.47"/>
			<rect x="46.8" y="26.96" className="st6" width="0.47" height="0.47"/>
		</g>
		<path className="st2" d="M32.42,50.15h2.28c0-0.02,0.73-3.48,0.73-3.48l1.44-11.84L34.97,21.8l-0.24-3.89c0-0.87-1.16-2.14-1.16-2.14
			s-1.16,1.27-1.16,2.14l-0.25,4.04l-1.9,12.88l1.44,11.84C31.69,46.67,32.42,50.12,32.42,50.15"/>
		<polygon className="st2" points="65.39,16.06 67.58,16.06 67.58,25.46 70.76,25.46 70.76,27.55 65.39,27.55 		"/>
		<polygon className="st2" points="73.24,16.06 79.51,16.06 79.51,18.2 75.41,18.2 75.41,20.27 79.51,20.27 79.51,22.38 75.41,22.38 
			75.41,25.4 79.51,25.4 79.51,27.55 73.24,27.55 		"/>
		<path className="st2" d="M92.96,17.93l-1.54,1.52c-0.98-1.03-2.11-1.55-3.41-1.55c-1.13,0-2.08,0.38-2.84,1.12s-1.15,1.66-1.15,2.73
			c0,1.11,0.4,2.05,1.19,2.82c0.79,0.77,1.77,1.16,2.93,1.16c0.75,0,1.39-0.16,1.91-0.48c0.52-0.32,0.94-0.82,1.26-1.49h-3.33v-2.06
			h5.78l0.02,0.48c0,1-0.26,1.96-0.78,2.86c-0.52,0.9-1.19,1.59-2.02,2.06c-0.83,0.47-1.8,0.71-2.91,0.71
			c-1.19,0-2.26-0.26-3.19-0.78c-0.93-0.52-1.68-1.26-2.22-2.21s-0.82-1.99-0.82-3.1c0-1.52,0.5-2.84,1.51-3.97
			c1.19-1.34,2.75-2.01,4.66-2.01c1,0,1.94,0.19,2.81,0.56C91.54,16.63,92.25,17.17,92.96,17.93"/>
		<path className="st2" d="M100.09,16.06h2.22l4.42,11.49h-2.28l-0.9-2.37h-4.69l-0.94,2.37h-2.27L100.09,16.06z M101.21,19.1
			l-1.54,3.95h3.08L101.21,19.1z"/>
		<polyline className="st2" points="114.6,27.55 109.22,27.55 109.22,16.06 111.41,16.06 111.41,25.46 114.6,25.46 		"/>
		<path className="st2" d="M66.91,35.26h2.59c1.67,0,2.91,0.21,3.72,0.62c0.81,0.41,1.48,1.09,2,2.02c0.53,0.93,0.79,2.02,0.79,3.27
			c0,0.89-0.15,1.7-0.44,2.44c-0.29,0.74-0.7,1.36-1.22,1.85c-0.52,0.49-1.08,0.83-1.68,1.02c-0.6,0.19-1.65,0.28-3.14,0.28h-2.63
			V35.26z M69.09,37.37v7.25h1.02c1,0,1.72-0.11,2.17-0.34c0.45-0.23,0.82-0.62,1.11-1.16c0.29-0.54,0.43-1.21,0.43-2
			c0-1.22-0.34-2.17-1.02-2.84c-0.61-0.6-1.6-0.91-2.96-0.91H69.09z"/>
		<path className="st2" d="M84.33,34.97c1.63,0,3.03,0.59,4.19,1.77c1.17,1.18,1.76,2.61,1.76,4.31c0,1.68-0.58,3.1-1.73,4.26
			c-1.15,1.16-2.55,1.74-4.2,1.74c-1.72,0-3.16-0.6-4.3-1.79c-1.14-1.19-1.71-2.61-1.71-4.25c0-1.1,0.27-2.11,0.8-3.03
			c0.53-0.92,1.26-1.65,2.19-2.19C82.26,35.24,83.26,34.97,84.33,34.97 M84.31,37.11c-1.06,0-1.96,0.37-2.68,1.11
			c-0.72,0.74-1.09,1.68-1.09,2.82c0,1.27,0.46,2.28,1.37,3.01c0.71,0.58,1.52,0.87,2.44,0.87c1.04,0,1.92-0.38,2.65-1.12
			c0.73-0.75,1.1-1.67,1.1-2.77c0-1.09-0.37-2.02-1.1-2.78C86.26,37.49,85.37,37.11,84.31,37.11"/>
		<path className="st2" d="M103.71,37.28l-1.53,1.46c-1.04-1.1-2.21-1.65-3.51-1.65c-1.1,0-2.02,0.38-2.77,1.13
			c-0.75,0.75-1.13,1.68-1.13,2.78c0,0.77,0.17,1.45,0.5,2.04c0.33,0.6,0.8,1.06,1.41,1.4c0.61,0.34,1.29,0.51,2.03,0.51
			c0.64,0,1.22-0.12,1.74-0.35c0.53-0.24,1.1-0.67,1.73-1.3l1.48,1.55c-0.85,0.83-1.65,1.4-2.41,1.72
			c-0.76,0.32-1.62,0.48-2.59,0.48c-1.79,0-3.25-0.57-4.39-1.7c-1.14-1.13-1.71-2.58-1.71-4.36c0-1.15,0.26-2.16,0.78-3.06
			c0.52-0.89,1.26-1.61,2.23-2.15c0.97-0.54,2.01-0.81,3.12-0.81c0.95,0,1.86,0.2,2.74,0.6S103.07,36.54,103.71,37.28"/>
		<path className="st2" d="M112.45,36.82l-1.62,1.43c-0.57-0.79-1.15-1.19-1.74-1.19c-0.29,0-0.52,0.08-0.71,0.23
			c-0.18,0.15-0.27,0.33-0.27,0.52c0,0.19,0.07,0.38,0.19,0.55c0.18,0.23,0.71,0.72,1.61,1.48c0.83,0.7,1.34,1.14,1.52,1.32
			c0.44,0.45,0.76,0.88,0.94,1.28c0.18,0.41,0.28,0.86,0.28,1.34c0,0.94-0.33,1.72-0.98,2.34c-0.65,0.61-1.5,0.92-2.55,0.92
			c-0.82,0-1.53-0.2-2.14-0.6c-0.61-0.4-1.13-1.03-1.56-1.89l1.84-1.11c0.55,1.02,1.19,1.52,1.91,1.52c0.38,0,0.69-0.11,0.95-0.33
			c0.26-0.22,0.38-0.47,0.38-0.76c0-0.26-0.1-0.52-0.29-0.78c-0.19-0.26-0.62-0.66-1.28-1.19c-1.25-1.02-2.06-1.81-2.43-2.36
			c-0.36-0.56-0.55-1.11-0.55-1.66c0-0.8,0.3-1.48,0.91-2.05c0.61-0.57,1.36-0.86,2.25-0.86c0.57,0,1.12,0.13,1.64,0.4
			C111.29,35.63,111.85,36.12,112.45,36.82"/>
		<path className="st2" d="M15.01,49.44c7.71,0,13.96-2.11,13.96-4.71H1.05C1.05,47.34,7.3,49.44,15.01,49.44"/>
		<path className="st2" d="M51.91,44.53c7.59,0,13.75-2.07,13.75-4.63H38.16C38.16,42.46,44.32,44.53,51.91,44.53"/>
		<path className="st2" d="M56.24,22.82l-4.41-8.94c-0.68,0.34-0.44,0.93-0.11,1.62l3.58,7.32L56.24,22.82z"/>
	</g>
</g>
</svg>
